<svg width="198" height="198" viewBox="0 0 198 198" fill="none" xmlns="http://www.w3.org/2000/svg">
<rect x="0.967773" width="197.032" height="197.032" rx="38.4453" fill="white"/>
<g clip-path="url(#clip0_293_682)">
<path d="M114.856 49.7759L137.394 74.2841H114.856V49.7759ZM92.3889 111.727C91.8149 112.416 91.0004 112.841 90.1247 112.907C89.249 112.973 88.3837 112.676 87.7192 112.081C87.0548 111.486 86.6455 110.642 86.5815 109.734C86.5176 108.826 86.8041 107.929 87.3781 107.24L96.9719 95.7195C97.5482 95.0321 98.3637 94.6094 99.2399 94.5441C100.116 94.4788 100.981 94.7762 101.647 95.3711C101.79 95.5074 101.926 95.652 102.054 95.804L111.526 106.659C112.113 107.333 112.419 108.22 112.375 109.127C112.331 110.034 111.941 110.886 111.291 111.495C110.642 112.104 109.785 112.421 108.911 112.375C108.036 112.33 107.214 111.926 106.627 111.252L102.797 106.87V123.184C102.797 123.636 102.712 124.084 102.545 124.502C102.378 124.919 102.133 125.299 101.825 125.618C101.517 125.938 101.151 126.192 100.748 126.365C100.345 126.538 99.9133 126.627 99.4773 126.627C99.0413 126.627 98.6096 126.538 98.2068 126.365C97.8039 126.192 97.4379 125.938 97.1296 125.618C96.8213 125.299 96.5767 124.919 96.4099 124.502C96.243 124.084 96.1572 123.636 96.1572 123.184V107.198L92.3889 111.727ZM73.69 126.247C73.69 125.334 74.0398 124.458 74.6624 123.812C75.2851 123.167 76.1296 122.804 77.0102 122.804C77.8907 122.804 78.7352 123.167 79.3579 123.812C79.9805 124.458 80.3303 125.334 80.3303 126.247V134.124H118.645V126.247C118.62 125.779 118.687 125.311 118.842 124.872C118.998 124.432 119.238 124.03 119.548 123.69C119.858 123.35 120.232 123.079 120.647 122.894C121.062 122.709 121.508 122.614 121.96 122.614C122.411 122.614 122.858 122.709 123.273 122.894C123.687 123.079 124.061 123.35 124.372 123.69C124.682 124.03 124.922 124.432 125.077 124.872C125.233 125.311 125.3 125.779 125.275 126.247V137.566C125.275 138.479 124.925 139.355 124.302 140C123.68 140.646 122.835 141.008 121.955 141.008H77.0102C76.1296 141.008 75.2851 140.646 74.6624 140C74.0398 139.355 73.69 138.479 73.69 137.566V126.247ZM149.932 77.4308C150.084 76.8289 148.73 75.245 147.202 73.6717L114.001 37.4849C113.658 37.0413 113.224 36.6822 112.731 36.4339C112.237 36.1855 111.697 36.054 111.149 36.0488H55.7651C53.977 36.0488 52.2621 36.7853 50.9977 38.0962C49.7333 39.4072 49.0229 41.1852 49.0229 43.0391V158.811C49.0229 159.729 49.1973 160.638 49.5362 161.487C49.875 162.335 50.3716 163.105 50.9977 163.754C51.6238 164.403 52.367 164.918 53.185 165.27C54.003 165.621 54.8797 165.802 55.7651 165.802H143.19C144.075 165.802 144.952 165.621 145.77 165.27C146.588 164.918 147.331 164.403 147.957 163.754C148.583 163.105 149.08 162.335 149.418 161.487C149.757 160.638 149.932 159.729 149.932 158.811V77.4308ZM142.395 82.098V157.988H56.5595V43.831H107.33V78.1805C107.33 78.6985 107.429 79.2114 107.621 79.6895C107.814 80.1676 108.096 80.6013 108.451 80.9657C108.806 81.33 109.227 81.6177 109.69 81.812C110.154 82.0064 110.649 82.1036 111.149 82.098H142.395Z" fill="#0E0E0E"/>
</g>
<defs>
<clipPath id="clip0_293_682">
<rect width="100.919" height="129.753" fill="white" transform="translate(49.0229 36.0488)"/>
</clipPath>
</defs>
</svg>
