<svg width="198" height="198" viewBox="0 0 198 198" fill="none" xmlns="http://www.w3.org/2000/svg">
<rect x="2.40283" y="2.40283" width="192.227" height="192.227" rx="36.0425" fill="#464A4C"/>
<rect x="2.40283" y="2.40283" width="192.227" height="192.227" rx="36.0425" stroke="#717171" stroke-width="4.80566"/>
<g clip-path="url(#clip0_293_678)">
<path d="M113.889 49.7759L136.427 74.2841H113.889V49.7759ZM91.4216 111.727C90.8476 112.416 90.0332 112.841 89.1574 112.907C88.2817 112.973 87.4164 112.676 86.752 112.081C86.0875 111.486 85.6782 110.642 85.6142 109.734C85.5503 108.826 85.8368 107.929 86.4108 107.24L96.0046 95.7195C96.5809 95.0321 97.3964 94.6094 98.2726 94.5441C99.1488 94.4788 100.014 94.7762 100.679 95.3711C100.823 95.5074 100.959 95.652 101.087 95.804L110.558 106.659C111.146 107.333 111.451 108.22 111.407 109.127C111.363 110.034 110.974 110.886 110.324 111.495C109.675 112.104 108.818 112.421 107.943 112.375C107.069 112.33 106.247 111.926 105.66 111.252L101.83 106.87V123.184C101.83 123.636 101.744 124.084 101.577 124.502C101.411 124.919 101.166 125.299 100.858 125.618C100.549 125.938 100.183 126.192 99.7806 126.365C99.3778 126.538 98.9461 126.627 98.51 126.627C98.074 126.627 97.6423 126.538 97.2395 126.365C96.8366 126.192 96.4706 125.938 96.1623 125.618C95.854 125.299 95.6095 124.919 95.4426 124.502C95.2758 124.084 95.1899 123.636 95.1899 123.184V107.198L91.4216 111.727ZM72.7227 126.247C72.7227 125.334 73.0725 124.458 73.6952 123.812C74.3178 123.167 75.1623 122.804 76.0429 122.804C76.9234 122.804 77.7679 123.167 78.3906 123.812C79.0132 124.458 79.363 125.334 79.363 126.247V134.124H117.677V126.247C117.652 125.779 117.72 125.311 117.875 124.872C118.03 124.432 118.27 124.03 118.581 123.69C118.891 123.35 119.265 123.079 119.68 122.894C120.094 122.709 120.541 122.614 120.992 122.614C121.444 122.614 121.891 122.709 122.305 122.894C122.72 123.079 123.094 123.35 123.404 123.69C123.715 124.03 123.955 124.432 124.11 124.872C124.265 125.311 124.333 125.779 124.308 126.247V137.566C124.308 138.479 123.958 139.355 123.335 140C122.712 140.646 121.868 141.008 120.987 141.008H76.0429C75.1623 141.008 74.3178 140.646 73.6952 140C73.0725 139.355 72.7227 138.479 72.7227 137.566V126.247ZM148.964 77.4308C149.117 76.8289 147.763 75.245 146.235 73.6717L113.033 37.4849C112.69 37.0413 112.257 36.6822 111.763 36.4339C111.27 36.1855 110.73 36.054 110.182 36.0488H54.7979C53.0097 36.0488 51.2948 36.7853 50.0304 38.0962C48.766 39.4072 48.0557 41.1852 48.0557 43.0391V158.811C48.0557 159.729 48.2301 160.638 48.5689 161.487C48.9077 162.335 49.4043 163.105 50.0304 163.754C50.6565 164.403 51.3997 164.918 52.2177 165.27C53.0357 165.621 53.9125 165.802 54.7979 165.802H142.222C143.108 165.802 143.984 165.621 144.802 165.27C145.62 164.918 146.364 164.403 146.99 163.754C147.616 163.105 148.112 162.335 148.451 161.487C148.79 160.638 148.964 159.729 148.964 158.811V77.4308ZM141.428 82.098V157.988H55.5922V43.831H106.362V78.1805C106.362 78.6985 106.461 79.2114 106.654 79.6895C106.846 80.1676 107.128 80.6013 107.483 80.9657C107.839 81.33 108.26 81.6177 108.723 81.812C109.186 82.0064 109.682 82.1036 110.182 82.098H141.428Z" fill="white"/>
</g>
<defs>
<clipPath id="clip0_293_678">
<rect width="100.919" height="129.753" fill="white" transform="translate(48.0557 36.0488)"/>
</clipPath>
</defs>
</svg>
