<svg width="337" height="261" viewBox="0 0 337 261" fill="none" xmlns="http://www.w3.org/2000/svg">
<g clip-path="url(#clip0_9430_60204)">
<path d="M255.27 62.618C269.78 66.5059 284.697 57.8877 288.587 43.3686C292.478 28.8495 283.869 13.9277 269.359 10.0397C254.849 6.1518 239.932 14.77 236.042 29.2891C232.151 43.8082 240.76 58.73 255.27 62.618Z" fill="#A6ABE8"/>
<path d="M266.129 22.0879L263.308 32.6157L271.728 39.1334L266.129 22.0879Z" fill="#F5F4FE"/>
<path d="M266.128 22.0879L252.755 34.0498L263.307 32.6157L266.128 22.0879Z" fill="#F5F4FE"/>
<path d="M260.415 43.4144L258.498 50.5679L271.291 40.7923L260.415 43.4144Z" fill="#F5F4FE"/>
<path d="M258.497 50.5678L260.414 43.4132L252.312 35.707L258.497 50.5678Z" fill="#F5F4FE"/>
<path d="M260.858 41.7585L271.728 39.1335L263.308 32.6182L260.858 41.7585Z" fill="#F5F4FE"/>
<path d="M252.756 34.0499L260.858 41.7584L263.307 32.6181L252.756 34.0499Z" fill="#F5F4FE"/>
</g>
<g clip-path="url(#clip1_9430_60204)">
<path d="M316.192 84.2412C323.992 84.2412 330.315 77.9139 330.315 70.1089C330.315 62.3038 323.992 55.9766 316.192 55.9766C308.393 55.9766 302.07 62.3038 302.07 70.1089C302.07 77.9139 308.393 84.2412 316.192 84.2412Z" fill="#A6ABE8"/>
<path d="M318.937 67.4243C318.968 67.3739 318.996 67.3069 319.025 67.2495C319.674 66.0991 320.016 64.8006 320.017 63.4795C319.102 62.9514 318.136 62.6184 317.086 62.5029C317.475 64.201 318.025 65.8455 318.822 67.3949L318.937 67.4243ZM313.692 67.134L313.663 67.1276L313.44 67.0766V67.0728H313.437L313.638 66.197C313.786 66.2289 313.935 66.2639 314.083 66.3003H314.086C314.627 65.0781 315.049 63.8064 315.346 62.5029C313.977 62.6542 312.675 63.1733 311.577 64.0052V64.0077C310.655 64.706 309.904 65.6039 309.378 66.6341C308.853 67.6644 308.567 68.8003 308.543 69.9567V70.1098C309.359 70.5794 310.255 70.8963 311.184 71.0449L311.189 71.0405C312.165 69.8346 313.005 68.5247 313.694 67.1347H313.692V67.134ZM318.481 68.4257C318.648 68.5151 318.711 68.6426 318.79 68.8927C318.901 69.2703 318.826 69.6677 318.748 70.0409L319.673 70.2559L319.902 69.2588C320.836 70.6973 321.872 72.1829 323.129 73.349C322.901 73.8676 322.76 74.0488 322.424 74.5042C320.365 73.8702 318.172 73.534 316.017 73.555L316.202 72.8183L315.587 72.6747C315.492 72.6505 315.394 72.6078 315.337 72.5236C315.265 72.4279 315.265 72.3016 315.289 72.1887L315.673 70.5161C315.872 70.564 316.08 70.5952 316.266 70.6839C316.353 70.7189 316.431 70.7739 316.493 70.8445C316.555 70.9151 316.599 70.9993 316.622 71.0902C316.673 71.3441 316.565 71.5878 316.522 71.8321L317.349 72.0235L318.039 69.033L317.969 69.0094L317.914 68.9992C318.106 68.7983 318.273 68.6197 318.445 68.4015L318.481 68.4257H318.481ZM311.209 71.2369L311.228 71.2095C311.389 71.2452 311.513 71.2318 311.677 71.2491C312.266 71.3014 312.837 71.3128 313.422 71.2299C313.467 71.2235 313.513 71.2191 313.558 71.2172L313.422 71.739C313.398 71.8423 313.353 71.9495 313.264 72.0145C313.221 72.0436 313.171 72.0633 313.119 72.0723C313.068 72.0813 313.015 72.0794 312.964 72.0668C312.753 72.0241 312.543 71.9667 312.33 71.9259C312.266 72.2174 312.196 72.5095 312.129 72.7991L313.542 73.1264C313.484 73.3898 313.47 73.4613 313.41 73.7222C312.235 73.8835 311.073 74.1371 309.937 74.4806C309.602 74.0258 309.459 73.9161 309.235 73.3968C309.95 72.7334 310.594 71.9954 311.209 71.2369V71.2369ZM314.488 73.3445L315.055 73.4759L315.036 73.5882L314.431 73.6316L314.488 73.3445ZM313.444 71.0615C313.488 71.0554 313.532 71.0516 313.576 71.05V71.0475L314.305 67.8899C314.334 67.7464 314.391 67.6029 314.346 67.4593C314.329 67.4079 314.3 67.3611 314.261 67.3228C314.223 67.2844 314.176 67.2554 314.124 67.238L314.101 67.2303C313.98 67.1978 314.073 67.2208 313.95 67.1921C313.936 67.1889 313.875 67.2093 313.861 67.2067C313.18 68.5806 312.348 69.8743 311.38 71.0641C311.54 71.0979 311.514 71.0883 311.674 71.1049C312.264 71.1591 312.857 71.1444 313.443 71.0622L313.444 71.0615Z" fill="#F5F4FE"/>
<path d="M315.064 66.5239V66.5265C315.176 66.0525 315.282 65.5766 315.396 65.1033L316.338 65.3202L316.011 66.744L316.575 66.8754C316.631 66.6387 316.687 66.4014 316.741 66.1641L316.823 65.8082L316.905 65.4522L317.847 65.6672C317.834 65.731 317.82 65.7948 317.806 65.8586C317.715 66.2713 317.613 66.6802 317.522 67.0942L318.606 67.3468C317.81 65.7967 317.283 64.1765 316.895 62.4784C316.651 62.4497 316.549 62.4593 316.302 62.4548H316.152C315.881 62.4548 315.781 62.4478 315.516 62.4784C315.218 63.7816 314.866 65.1486 314.324 66.3708L315.064 66.5239V66.5239ZM316.314 67.7416L316.343 67.748L316.346 67.7416H316.314Z" fill="white"/>
<path d="M316.316 67.7417L315.879 69.6388C316.151 69.6988 316.434 69.7983 316.713 69.7198C316.803 69.6916 316.884 69.6416 316.95 69.5744C317.016 69.5072 317.064 69.4249 317.091 69.3345C317.143 69.1668 317.169 68.9946 317.215 68.8274L317.677 68.9448C317.697 68.948 317.674 68.9601 317.687 68.9467L317.698 68.9378C317.89 68.7324 318.106 68.5072 318.278 68.2897C317.996 68.1484 317.695 68.0477 317.385 67.9905L316.316 67.7417V67.7417ZM323.182 66.996C322.522 65.52 321.582 64.4088 320.184 63.5986C320.182 64.9203 319.865 66.0998 319.216 67.2512C319.177 67.3232 319.141 67.3971 319.108 67.4725C319.546 67.5682 319.818 67.6269 320.256 67.7252V67.7296L319.974 68.9971C320.906 70.4349 321.946 72.0182 323.201 73.1855C323.601 72.272 323.819 71.289 323.841 70.2914V69.9323C323.817 68.9194 323.593 67.9213 323.182 66.9954V66.996ZM308.543 70.2774V70.3877C308.558 71.4077 308.776 72.2465 309.184 73.1817C309.86 72.5569 310.489 71.882 311.065 71.1627C310.137 71.0148 309.356 70.7494 308.543 70.2774ZM315.991 73.722L315.671 75.1189H315.669L314.722 74.9021L314.985 73.7558L314.383 73.7985L314.16 74.77H314.159L313.212 74.5525C313.26 74.3369 313.307 74.1264 313.36 73.914C312.232 74.0671 311.119 74.3127 310.033 74.6482C310.731 75.5962 311.638 76.3705 312.683 76.9111C313.728 77.4516 314.884 77.7438 316.061 77.7649H316.374C317.542 77.7348 318.687 77.4384 319.723 76.8983C320.759 76.3582 321.658 75.5886 322.352 74.6482C320.292 74.0133 318.147 73.7009 315.991 73.722V73.722Z" fill="white"/>
</g>
<g clip-path="url(#clip2_9430_60204)">
<path d="M60.0549 76.5451C68.7047 74.2257 73.8379 65.3284 71.5202 56.6724C69.2025 48.0163 60.3116 42.8795 51.6618 45.1988C43.012 47.5182 37.8789 56.4155 40.1966 65.0715C42.5143 73.7276 51.4052 78.8644 60.0549 76.5451Z" fill="#A6ABE8"/>
<path d="M63.9292 62.5777L62.2227 65.6911C62.1856 65.7587 62.1347 65.8184 62.0733 65.8663C62.0119 65.9142 61.9412 65.9493 61.8657 65.9695L50.6308 68.9821C50.5771 68.9965 50.5206 68.9953 50.4681 68.9786C50.4156 68.962 50.3694 68.9306 50.3352 68.8884C50.301 68.8462 50.2803 68.795 50.2756 68.7411C50.2709 68.6871 50.2824 68.6328 50.3088 68.5848L52.0171 65.4709C52.0541 65.4034 52.1048 65.3439 52.1659 65.2961C52.2271 65.2483 52.2976 65.2131 52.3728 65.1928L63.6072 62.1804C63.6608 62.166 63.7173 62.1672 63.7698 62.1838C63.8223 62.2005 63.8685 62.2319 63.9028 62.274C63.9369 62.3162 63.9576 62.3674 63.9623 62.4214C63.967 62.4753 63.9555 62.5297 63.9292 62.5777ZM60.2231 58.2233C60.1572 58.1833 60.0834 58.1571 60.0063 58.1464C59.9291 58.1356 59.8504 58.1405 59.7749 58.1608L48.5399 61.1734C48.4863 61.1878 48.438 61.2171 48.4008 61.2578C48.3637 61.2985 48.3393 61.3487 48.3308 61.4024C48.3223 61.456 48.3299 61.5108 48.3528 61.5598C48.3757 61.6089 48.4128 61.6502 48.4596 61.6786L51.4948 63.5205C51.5606 63.5604 51.6342 63.5866 51.7111 63.5974C51.788 63.6082 51.8666 63.6034 51.9419 63.5833L63.1762 60.5709C63.2298 60.5566 63.2782 60.5272 63.3154 60.4866C63.3525 60.4459 63.3768 60.3956 63.3854 60.342C63.3939 60.2883 63.3863 60.2336 63.3634 60.1845C63.3405 60.1355 63.3034 60.0942 63.2566 60.0658L60.2231 58.2233ZM48.109 59.564L59.3439 56.5514C59.4195 56.5312 59.4901 56.496 59.5515 56.4481C59.613 56.4002 59.6638 56.3406 59.7009 56.2729L61.4074 53.1595C61.4337 53.1115 61.4453 53.0572 61.4406 53.0033C61.4359 52.9493 61.4151 52.8981 61.381 52.8559C61.3467 52.8137 61.3005 52.7824 61.2481 52.7657C61.1955 52.7491 61.139 52.7479 61.0854 52.7622L49.8511 55.7746C49.7758 55.795 49.7054 55.8301 49.6442 55.878C49.583 55.9258 49.5323 55.9853 49.4953 56.0528L47.7876 59.1665C47.7613 59.2145 47.7498 59.2687 47.7544 59.3226C47.7591 59.3765 47.7798 59.4277 47.8139 59.4699C47.848 59.5121 47.8941 59.5435 47.9465 59.5602C47.9989 59.5769 48.0554 59.5782 48.109 59.564Z" fill="#F5F4FE"/>
</g>
<path d="M293.963 180.942L291.975 184.524C291.9 184.658 291.771 184.753 291.62 184.783L287.585 185.59C287.175 185.672 287.022 186.178 287.317 186.473L290.113 189.271C290.224 189.382 290.279 189.536 290.264 189.692L289.855 193.784C289.815 194.184 290.221 194.477 290.588 194.314L294.234 192.693C294.384 192.626 294.557 192.633 294.701 192.713L298.214 194.666C298.599 194.881 299.061 194.55 298.982 194.116L298.183 189.715C298.152 189.547 298.206 189.374 298.327 189.252L301.105 186.473C301.4 186.178 301.247 185.672 300.837 185.59L296.83 184.788C296.664 184.755 296.524 184.643 296.455 184.488L294.899 180.984C294.723 180.589 294.173 180.565 293.963 180.942Z" fill="#E85FA9"/>
<path d="M21.6397 115.515L20.4629 117.635C20.3884 117.769 20.2587 117.864 20.1082 117.894L17.696 118.377C17.2865 118.459 17.1335 118.964 17.4287 119.259L19.0882 120.92C19.199 121.031 19.2543 121.186 19.2387 121.342L18.9921 123.809C18.9522 124.209 19.3584 124.502 19.7251 124.339L21.9105 123.367C22.0607 123.3 22.2336 123.308 22.3772 123.388L24.4291 124.529C24.815 124.743 25.2768 124.413 25.1979 123.978L24.723 121.365C24.6924 121.196 24.7464 121.023 24.8677 120.902L26.5087 119.259C26.8039 118.964 26.6509 118.459 26.2414 118.377L23.8574 117.9C23.6909 117.866 23.551 117.754 23.482 117.599L22.575 115.557C22.3998 115.162 21.8492 115.138 21.6397 115.515Z" fill="#E85FA9"/>
<ellipse cx="2.09217" cy="114.598" rx="2.09217" ry="2.09368" fill="#E2A500"/>
<ellipse cx="6.27558" cy="109.362" rx="1.04608" ry="1.04684" fill="#E85FA9"/>
<ellipse cx="18.307" cy="161.181" rx="4.70737" ry="4.71077" fill="#E2A500"/>
<ellipse cx="27.1986" cy="161.705" rx="2.09217" ry="2.09368" fill="#E85FA9"/>
<ellipse cx="307.547" cy="193.111" rx="2.09217" ry="2.09368" fill="#E2A500"/>
<ellipse cx="326.901" cy="181.072" rx="4.70737" ry="4.71077" fill="#E2A500"/>
<ellipse cx="313.825" cy="200.438" rx="1.04608" ry="1.04684" fill="#E85FA9"/>
<g clip-path="url(#clip3_9430_60204)">
<path d="M256.865 64.9939C272.602 69.2107 288.778 59.8715 292.995 44.1343C297.212 28.397 287.873 12.2211 272.135 8.0043C256.398 3.78752 240.222 13.1267 236.005 28.864C231.789 44.6012 241.128 60.7771 256.865 64.9939Z" fill="#5472E8"/>
<path d="M268.633 21.0635L265.575 32.4746L274.708 39.5409L268.633 21.0635Z" fill="#C1CCF8"/>
<path d="M268.633 21.0636L254.131 34.0275L265.575 32.4747L268.633 21.0636Z" fill="white"/>
<path d="M262.439 44.1798L260.362 51.9335L274.234 41.3395L262.439 44.1798Z" fill="#C1CCF8"/>
<path d="M260.362 51.9326L262.44 44.1777L253.65 35.8232L260.362 51.9326Z" fill="white"/>
<path d="M262.921 42.3847L274.709 39.5413L265.575 32.4775L262.921 42.3847Z" fill="#8BA1F6"/>
<path d="M254.131 34.0278L262.92 42.3849L265.574 32.4777L254.131 34.0278Z" fill="#C1CCF8"/>
</g>
<g clip-path="url(#clip4_9430_60204)">
<path d="M60.8076 78.3011C71.7436 75.3708 78.2336 64.1299 75.3033 53.1938C72.373 42.2577 61.1321 35.7678 50.196 38.6981C39.26 41.6284 32.77 52.8693 35.7003 63.8054C38.6306 74.7414 49.8715 81.2314 60.8076 78.3011Z" fill="black"/>
<path d="M65.7066 60.6548L63.549 64.5884C63.5021 64.6738 63.4378 64.7491 63.3601 64.8097C63.2825 64.8702 63.1931 64.9146 63.0976 64.9401L48.8931 68.7462C48.8253 68.7644 48.7539 68.7629 48.6875 68.7419C48.6211 68.7208 48.5627 68.6812 48.5195 68.6279C48.4762 68.5746 48.45 68.5099 48.4441 68.4417C48.4381 68.3736 48.4527 68.3049 48.486 68.2443L50.6459 64.3102C50.6926 64.2249 50.7567 64.1498 50.8341 64.0893C50.9114 64.0289 51.0005 63.9845 51.0957 63.9588L65.2994 60.1529C65.3672 60.1347 65.4386 60.1363 65.5051 60.1573C65.5714 60.1783 65.6298 60.2179 65.6731 60.2712C65.7163 60.3246 65.7425 60.3893 65.7484 60.4574C65.7544 60.5256 65.7398 60.5942 65.7066 60.6548ZM61.0209 55.1536C60.9376 55.103 60.8442 55.0699 60.7467 55.0563C60.6492 55.0427 60.5496 55.0489 60.4542 55.0746L46.2496 58.8807C46.1819 58.8988 46.1207 58.9359 46.0738 58.9873C46.0268 59.0387 45.996 59.1022 45.9852 59.17C45.9744 59.2378 45.9841 59.3069 46.013 59.3689C46.0419 59.4309 46.0889 59.483 46.1481 59.5189L49.9856 61.846C50.0687 61.8965 50.1618 61.9295 50.259 61.9432C50.3562 61.9568 50.4556 61.9508 50.5508 61.9254L64.7546 58.1195C64.8223 58.1014 64.8835 58.0643 64.9305 58.0129C64.9774 57.9615 65.0082 57.8981 65.0191 57.8302C65.0298 57.7625 65.0201 57.6933 64.9912 57.6313C64.9623 57.5693 64.9153 57.5172 64.8562 57.4813L61.0209 55.1536ZM45.7048 56.8473L59.9093 53.0412C60.0048 53.0157 60.0942 52.9713 60.1718 52.9107C60.2495 52.8502 60.3138 52.7749 60.3607 52.6894L62.5183 48.7559C62.5515 48.6953 62.5661 48.6266 62.5601 48.5585C62.5542 48.4903 62.528 48.4256 62.4848 48.3723C62.4415 48.319 62.3831 48.2794 62.3168 48.2584C62.2503 48.2374 62.1789 48.2358 62.1111 48.254L47.9074 52.0599C47.8122 52.0855 47.7231 52.13 47.6458 52.1904C47.5684 52.2509 47.5043 52.326 47.4575 52.4112L45.2985 56.3452C45.2652 56.4058 45.2506 56.4743 45.2565 56.5424C45.2624 56.6105 45.2885 56.6752 45.3317 56.7285C45.3748 56.7818 45.4331 56.8214 45.4994 56.8425C45.5657 56.8636 45.637 56.8653 45.7048 56.8473Z" fill="#66FFF6"/>
</g>
<g clip-path="url(#clip5_9430_60204)">
<path d="M323.498 82.9905C330.673 78.8484 333.131 69.6745 328.989 62.5001C324.846 55.3258 315.673 52.8676 308.498 57.0098C301.324 61.1519 298.866 70.3258 303.008 77.5001C307.15 84.6745 316.324 87.1327 323.498 82.9905Z" fill="#42C1CA"/>
<path d="M314.322 67.9905C313.965 66.7929 313.72 65.6722 313.684 64.8694C313.632 64.5063 313.702 63.5235 313.957 62.7537C314.382 61.4712 315.248 60.708 316.638 60.7594L316.631 60.9533L316.638 60.7594C317.348 60.7855 317.751 61.001 317.842 61.3705C317.91 61.6452 317.761 61.9828 317.612 62.043C317.422 62.1799 317.195 62.2569 316.918 62.2261C316.682 62.1946 316.459 62.0994 316.273 61.9508C315.936 61.6964 315.683 61.69 315.469 61.8496C315.313 61.9645 315.181 62.1826 315.161 62.2894L315.104 62.5559C315.057 62.758 315.03 62.9644 315.025 63.1719C315.013 63.8912 315.282 65.0408 316.043 67.3059L318.992 66.1343L319.471 67.3099L316.478 68.4988L316.774 69.2836L316.847 69.4803C316.885 69.5826 316.926 69.6937 316.968 69.8132L319.99 68.6128L320.458 69.7929L317.365 71.0216C317.844 72.6115 318.276 74.3622 318.312 75.1313C318.364 75.4954 318.294 76.4765 318.039 77.2469C317.614 78.5287 316.748 79.2927 315.358 79.2413C314.648 79.2152 314.245 78.9989 314.154 78.6294C314.085 78.3548 314.235 78.0179 314.384 77.9577C314.574 77.8208 314.801 77.7438 315.077 77.7739C315.291 77.798 315.507 77.8868 315.722 78.0498C316.059 78.3035 316.313 78.3106 316.527 78.151C316.682 78.0354 316.814 77.8174 316.834 77.7106C317.053 76.6775 316.78 75.087 315.645 71.7061L312.696 72.877L312.216 71.7014L315.209 70.5126L314.914 69.7281C314.847 69.5521 314.783 69.3753 314.72 69.1978L311.71 70.394L311.241 69.2143L314.322 67.9905V67.9905Z" fill="white"/>
</g>
<g opacity="0.8" filter="url(#filter0_f_9430_60204)">
<ellipse cx="165.051" cy="239" rx="70" ry="6" fill="#4F5277" fill-opacity="0.3"/>
</g>
<rect x="67" y="91.5664" width="186.798" height="121.433" rx="12.6732" fill="#3B3F70"/>
<path d="M201.392 152.16C201.392 141.333 210.169 132.556 220.996 132.556H245.085C255.912 132.556 264.689 141.333 264.689 152.16V152.16C264.689 162.987 255.912 171.764 245.085 171.764H220.996C210.169 171.764 201.392 162.987 201.392 152.16V152.16Z" fill="#0E0E34"/>
<ellipse cx="219.041" cy="152.13" rx="9.63738" ry="9.62471" fill="#6D71A5"/>
<path d="M190.117 32.3866L133.768 42.4561C128.889 43.328 125.832 48.2258 127.193 52.9918L138.249 91.7166H212.521L199.724 38.6625C198.686 34.3584 194.475 31.6077 190.117 32.3866Z" fill="#6D71A5"/>
<path d="M116.531 77.8965L125.173 91.6702H204.675L183.965 50.2197C182.058 46.4036 177.586 44.6324 173.584 46.1081L120.724 65.5966C115.738 67.435 113.706 73.395 116.531 77.8965Z" fill="#ACACCE"/>
<defs>
<filter id="filter0_f_9430_60204" x="79.0508" y="217" width="172" height="44" filterUnits="userSpaceOnUse" color-interpolation-filters="sRGB">
<feFlood flood-opacity="0" result="BackgroundImageFix"/>
<feBlend mode="normal" in="SourceGraphic" in2="BackgroundImageFix" result="shape"/>
<feGaussianBlur stdDeviation="8" result="effect1_foregroundBlur_9430_60204"/>
</filter>
<clipPath id="clip0_9430_60204">
<rect width="54.3989" height="54.433" fill="white" transform="translate(243.086 3) rotate(15)"/>
</clipPath>
<clipPath id="clip1_9430_60204">
<rect width="28.2442" height="28.2646" fill="white" transform="translate(302.07 55.9766)"/>
</clipPath>
<clipPath id="clip2_9430_60204">
<rect width="32.4301" height="32.4504" fill="white" transform="matrix(0.965879 -0.258993 0.258645 0.965972 36 49.3984)"/>
</clipPath>
<clipPath id="clip3_9430_60204">
<rect width="59" height="59" fill="white" transform="translate(243.641 0.369141) rotate(15)"/>
</clipPath>
<clipPath id="clip4_9430_60204">
<rect width="41" height="41" fill="white" transform="translate(30.3945 44.0039) rotate(-15)"/>
</clipPath>
<clipPath id="clip5_9430_60204">
<rect width="30" height="30" fill="white" transform="translate(295.508 64.5098) rotate(-30)"/>
</clipPath>
</defs>
</svg>
