<svg width="337" height="261" viewBox="0 0 337 261" fill="none" xmlns="http://www.w3.org/2000/svg">
<g opacity="0.8" filter="url(#filter0_f_9353_76896)">
<ellipse cx="166" cy="238.631" rx="70" ry="6" fill="#C1C5F8"/>
</g>
<rect x="66.9492" y="91.1973" width="186.798" height="121.433" rx="12.6732" fill="#5D65D3"/>
<path d="M201.341 151.791C201.341 140.964 210.118 132.187 220.945 132.187H245.034C255.861 132.187 264.638 140.964 264.638 151.791V151.791C264.638 162.618 255.861 171.395 245.034 171.395H220.945C210.118 171.395 201.341 162.618 201.341 151.791V151.791Z" fill="#393E82"/>
<ellipse cx="218.99" cy="151.76" rx="9.63738" ry="9.62471" fill="#A6ABE8"/>
<g clip-path="url(#clip0_9353_76896)">
<path d="M255.27 62.2488C269.78 66.1368 284.697 57.5185 288.587 42.9995C292.478 28.4804 283.869 13.5585 269.359 9.6706C254.849 5.78266 239.932 14.4009 236.042 28.92C232.151 43.439 240.76 58.3609 255.27 62.2488Z" fill="#A6ABE8"/>
<path d="M266.128 21.7188L263.307 32.2465L271.727 38.7643L266.128 21.7188Z" fill="#F5F4FE"/>
<path d="M266.127 21.7187L252.754 33.6807L263.306 32.2465L266.127 21.7187Z" fill="#F5F4FE"/>
<path d="M260.413 43.0453L258.496 50.1987L271.289 40.4232L260.413 43.0453Z" fill="#F5F4FE"/>
<path d="M258.496 50.1987L260.413 43.044L252.31 35.3379L258.496 50.1987Z" fill="#F5F4FE"/>
<path d="M260.857 41.3893L271.727 38.7644L263.306 32.249L260.857 41.3893Z" fill="#F5F4FE"/>
<path d="M252.754 33.6808L260.857 41.3893L263.306 32.249L252.754 33.6808Z" fill="#F5F4FE"/>
</g>
<g clip-path="url(#clip1_9353_76896)">
<path d="M316.192 83.8721C323.992 83.8721 330.315 77.5448 330.315 69.7397C330.315 61.9347 323.992 55.6074 316.192 55.6074C308.393 55.6074 302.07 61.9347 302.07 69.7397C302.07 77.5448 308.393 83.8721 316.192 83.8721Z" fill="#A6ABE8"/>
<path d="M318.937 67.0551C318.968 67.0047 318.996 66.9377 319.025 66.8803C319.674 65.73 320.016 64.4315 320.017 63.1104C319.102 62.5822 318.137 62.2492 317.086 62.1338C317.475 63.8319 318.026 65.4763 318.822 67.0258L318.937 67.0551ZM313.692 66.7649L313.664 66.7585L313.441 66.7075V66.7036H313.437L313.638 65.8278C313.787 65.8597 313.935 65.8948 314.083 65.9312H314.086C314.628 64.709 315.05 63.4373 315.347 62.1338C313.978 62.2851 312.675 62.8042 311.577 63.636V63.6386C310.655 64.3368 309.904 65.2347 309.378 66.265C308.853 67.2953 308.568 68.4312 308.543 69.5875V69.7406C309.36 70.2102 310.255 70.5271 311.185 70.6758L311.189 70.6713C312.165 69.4654 313.005 68.1556 313.694 66.7655H313.692V66.7649ZM318.481 68.0566C318.648 68.1459 318.711 68.2735 318.791 68.5235C318.901 68.9012 318.826 69.2986 318.748 69.6718L319.673 69.8867L319.902 68.8897C320.836 70.3281 321.872 71.8138 323.13 72.9799C322.901 73.4985 322.76 73.6796 322.424 74.1351C320.365 73.501 318.172 73.1648 316.018 73.1859L316.202 72.4491L315.587 72.3056C315.492 72.2814 315.394 72.2386 315.337 72.1544C315.265 72.0587 315.265 71.9324 315.289 71.8195L315.674 70.147C315.872 70.1948 316.08 70.2261 316.266 70.3147C316.353 70.3497 316.431 70.4048 316.493 70.4753C316.555 70.5459 316.599 70.6301 316.623 70.7211C316.673 70.975 316.565 71.2186 316.522 71.4629L317.349 71.6543L318.039 68.6639L317.969 68.6403L317.915 68.6301C318.106 68.4291 318.273 68.2505 318.446 68.0324L318.481 68.0566H318.481ZM311.209 70.8678L311.229 70.8404C311.389 70.8761 311.513 70.8627 311.677 70.8799C312.266 70.9322 312.837 70.9437 313.423 70.8608C313.467 70.8544 313.513 70.8499 313.559 70.848L313.423 71.3698C313.399 71.4732 313.353 71.5803 313.265 71.6454C313.221 71.6745 313.171 71.6941 313.12 71.7031C313.068 71.7121 313.015 71.7103 312.964 71.6977C312.753 71.655 312.543 71.5975 312.33 71.5567C312.266 71.8482 312.196 72.1404 312.129 72.43L313.542 72.7572C313.485 73.0207 313.471 73.0921 313.411 73.353C312.235 73.5144 311.073 73.768 309.937 74.1115C309.603 73.6567 309.459 73.5469 309.235 73.0277C309.95 72.3643 310.594 71.6262 311.209 70.8678V70.8678ZM314.489 72.9754L315.055 73.1068L315.036 73.2191L314.431 73.2624L314.489 72.9754ZM313.444 70.6924C313.488 70.6863 313.532 70.6825 313.576 70.6809V70.6783L314.306 67.5208C314.334 67.3773 314.392 67.2337 314.346 67.0902C314.329 67.0387 314.3 66.992 314.261 66.9536C314.223 66.9152 314.176 66.8862 314.125 66.8689L314.101 66.8612C313.98 66.8287 314.073 66.8516 313.95 66.8229C313.937 66.8197 313.875 66.8402 313.861 66.8376C313.18 68.2115 312.348 69.5052 311.38 70.6949C311.54 70.7287 311.514 70.7192 311.674 70.7358C312.264 70.79 312.857 70.7753 313.443 70.693L313.444 70.6924Z" fill="#F5F4FE"/>
<path d="M315.064 66.1548V66.1573C315.176 65.6834 315.281 65.2075 315.396 64.7342L316.338 64.9511L316.011 66.3748L316.575 66.5062C316.631 66.2696 316.686 66.0323 316.74 65.795L316.823 65.439L316.905 65.0831L317.846 65.2981C317.834 65.3619 317.82 65.4257 317.806 65.4894C317.714 65.9022 317.613 66.311 317.522 66.725L318.606 66.9776C317.81 65.4276 317.283 63.8073 316.895 62.1093C316.651 62.0806 316.549 62.0901 316.302 62.0857H316.151C315.881 62.0857 315.781 62.0786 315.516 62.1093C315.218 63.4125 314.866 64.7795 314.324 66.0017L315.064 66.1548V66.1548ZM316.314 67.3725L316.343 67.3789L316.346 67.3725H316.314Z" fill="white"/>
<path d="M316.317 67.3726L315.879 69.2697C316.151 69.3296 316.434 69.4292 316.713 69.3507C316.803 69.3224 316.884 69.2725 316.95 69.2053C317.016 69.1381 317.065 69.0557 317.091 68.9654C317.143 68.7976 317.17 68.6254 317.215 68.4583L317.677 68.5757C317.697 68.5788 317.674 68.591 317.687 68.5776L317.699 68.5686C317.89 68.3632 318.107 68.1381 318.279 67.9205C317.996 67.7792 317.695 67.6785 317.385 67.6214L316.317 67.3726V67.3726ZM323.182 66.6269C322.522 65.1508 321.582 64.0396 320.184 63.2295C320.183 64.5512 319.865 65.7307 319.216 66.8821C319.177 66.9541 319.141 67.028 319.109 67.1034C319.546 67.1991 319.819 67.2578 320.256 67.356V67.3605L319.974 68.628C320.906 70.0658 321.946 71.649 323.201 72.8164C323.601 71.9029 323.819 70.9199 323.842 69.9222V69.5631C323.817 68.5502 323.593 67.5521 323.182 66.6263V66.6269ZM308.543 69.9082V70.0186C308.558 71.0386 308.776 71.8774 309.184 72.8125C309.861 72.1878 310.489 71.5129 311.065 70.7936C310.137 70.6456 309.356 70.3803 308.543 69.9082ZM315.992 73.3528L315.671 74.7498H315.669L314.722 74.5329L314.986 73.3866L314.383 73.4294L314.16 74.4009H314.159L313.212 74.1834C313.26 73.9678 313.307 73.7572 313.36 73.5448C312.233 73.6979 311.12 73.9435 310.033 74.279C310.731 75.2271 311.638 76.0014 312.683 76.5419C313.729 77.0824 314.885 77.3746 316.061 77.3958H316.374C317.542 77.3656 318.687 77.0692 319.723 76.5291C320.759 75.989 321.659 75.2195 322.353 74.279C320.293 73.6442 318.147 73.3318 315.992 73.3528V73.3528Z" fill="white"/>
</g>
<g clip-path="url(#clip2_9353_76896)">
<path d="M60.0549 76.1759C68.7047 73.8565 73.8379 64.9592 71.5202 56.3032C69.2025 47.6472 60.3116 42.5103 51.6618 44.8297C43.012 47.1491 37.8789 56.0464 40.1966 64.7024C42.5143 73.3584 51.4052 78.4953 60.0549 76.1759Z" fill="#A6ABE8"/>
<path d="M63.9297 62.2085L62.2232 65.3219C62.1861 65.3896 62.1352 65.4492 62.0738 65.4971C62.0124 65.545 61.9417 65.5802 61.8662 65.6004L50.6312 68.613C50.5776 68.6273 50.5211 68.6261 50.4686 68.6095C50.4161 68.5928 50.3699 68.5615 50.3357 68.5193C50.3015 68.4771 50.2808 68.4259 50.2761 68.3719C50.2714 68.318 50.2829 68.2637 50.3093 68.2157L52.0176 65.1018C52.0546 65.0343 52.1052 64.9748 52.1664 64.927C52.2276 64.8791 52.298 64.844 52.3733 64.8236L63.6077 61.8112C63.6613 61.7969 63.7178 61.7981 63.7703 61.8147C63.8228 61.8314 63.8689 61.8627 63.9032 61.9049C63.9374 61.9471 63.9581 61.9983 63.9628 62.0523C63.9675 62.1062 63.956 62.1605 63.9297 62.2085ZM60.2236 57.8542C60.1577 57.8142 60.0839 57.788 60.0068 57.7772C59.9296 57.7665 59.8509 57.7714 59.7754 57.7917L48.5404 60.8042C48.4868 60.8186 48.4385 60.8479 48.4013 60.8886C48.3641 60.9293 48.3398 60.9796 48.3313 61.0332C48.3227 61.0869 48.3304 61.1416 48.3533 61.1907C48.3761 61.2397 48.4133 61.281 48.4601 61.3094L51.4953 63.1514C51.5611 63.1913 51.6347 63.2174 51.7116 63.2283C51.7885 63.2391 51.867 63.2343 51.9424 63.2142L63.1767 60.2018C63.2303 60.1874 63.2787 60.1581 63.3159 60.1174C63.353 60.0767 63.3773 60.0265 63.3859 59.9728C63.3944 59.9192 63.3868 59.8644 63.3639 59.8154C63.341 59.7663 63.3039 59.725 63.2571 59.6966L60.2236 57.8542ZM48.1095 59.1948L59.3444 56.1822C59.4199 56.162 59.4906 56.1269 59.552 56.079C59.6135 56.0311 59.6643 55.9714 59.7014 55.9038L61.4079 52.7904C61.4342 52.7424 61.4457 52.6881 61.4411 52.6341C61.4364 52.5802 61.4156 52.5289 61.3815 52.4867C61.3472 52.4446 61.301 52.4132 61.2486 52.3966C61.196 52.3799 61.1395 52.3787 61.0859 52.3931L49.8516 55.4055C49.7763 55.4258 49.7059 55.461 49.6447 55.5088C49.5835 55.5567 49.5328 55.6162 49.4958 55.6836L47.7881 58.7974C47.7618 58.8453 47.7503 58.8996 47.7549 58.9535C47.7596 59.0074 47.7802 59.0586 47.8144 59.1008C47.8485 59.143 47.8946 59.1743 47.947 59.191C47.9994 59.2077 48.0559 59.209 48.1095 59.1948Z" fill="#F5F4FE"/>
</g>
<path d="M293.963 180.573L291.975 184.155C291.9 184.289 291.771 184.383 291.62 184.414L287.585 185.221C287.175 185.303 287.022 185.808 287.317 186.104L290.113 188.902C290.224 189.013 290.279 189.167 290.264 189.323L289.855 193.415C289.815 193.815 290.221 194.108 290.588 193.945L294.234 192.323C294.384 192.257 294.557 192.264 294.701 192.344L298.214 194.297C298.599 194.512 299.061 194.181 298.982 193.746L298.183 189.346C298.152 189.178 298.206 189.004 298.327 188.883L301.105 186.104C301.4 185.808 301.247 185.303 300.837 185.221L296.83 184.419C296.664 184.386 296.524 184.274 296.455 184.119L294.899 180.614C294.723 180.22 294.173 180.195 293.963 180.573Z" fill="#F195A4"/>
<path d="M21.6397 115.146L20.4629 117.266C20.3884 117.4 20.2587 117.495 20.1082 117.525L17.696 118.008C17.2865 118.09 17.1335 118.595 17.4287 118.89L19.0882 120.551C19.199 120.662 19.2543 120.817 19.2387 120.973L18.9921 123.44C18.9522 123.84 19.3584 124.133 19.7251 123.97L21.9105 122.998C22.0607 122.931 22.2336 122.939 22.3772 123.019L24.4291 124.16C24.815 124.374 25.2768 124.043 25.1979 123.609L24.723 120.996C24.6924 120.827 24.7464 120.654 24.8677 120.532L26.5087 118.89C26.8039 118.595 26.6509 118.09 26.2414 118.008L23.8574 117.53C23.6909 117.497 23.551 117.385 23.482 117.23L22.575 115.188C22.3998 114.793 21.8492 114.769 21.6397 115.146Z" fill="#F195A4"/>
<ellipse cx="2.09217" cy="114.228" rx="2.09217" ry="2.09368" fill="#E2A500"/>
<ellipse cx="6.27655" cy="108.993" rx="1.04608" ry="1.04684" fill="#F195A4"/>
<ellipse cx="18.307" cy="160.812" rx="4.70737" ry="4.71077" fill="#E2A500"/>
<ellipse cx="27.1986" cy="161.336" rx="2.09217" ry="2.09368" fill="#F195A4"/>
<ellipse cx="307.547" cy="192.742" rx="2.09217" ry="2.09368" fill="#E2A500"/>
<ellipse cx="326.901" cy="180.703" rx="4.70737" ry="4.71077" fill="#E2A500"/>
<ellipse cx="313.825" cy="200.069" rx="1.04608" ry="1.04684" fill="#F195A4"/>
<path d="M190.066 32.0174L133.717 42.087C128.838 42.9589 125.782 47.8567 127.142 52.6227L138.199 91.3475H212.471L199.674 38.2933C198.635 33.9893 194.425 31.2386 190.066 32.0174Z" fill="#5D65D3"/>
<path d="M116.48 77.5274L125.122 91.3011H204.624L183.914 49.8505C182.007 46.0344 177.535 44.2632 173.533 45.7389L120.674 65.2275C115.687 67.0658 113.655 73.0258 116.48 77.5274Z" fill="#E5E2F0"/>
<g clip-path="url(#clip3_9353_76896)">
<path d="M256.865 64.6248C272.602 68.8416 288.778 59.5024 292.995 43.7651C297.212 28.0279 287.873 11.8519 272.135 7.63516C256.398 3.41838 240.222 12.7576 236.005 28.4948C231.789 44.2321 241.128 60.408 256.865 64.6248Z" fill="#5472E8"/>
<path d="M268.634 20.6943L265.576 32.1054L274.709 39.1717L268.634 20.6943Z" fill="#C1CCF8"/>
<path d="M268.633 20.6945L254.132 33.6583L265.575 32.1056L268.633 20.6945Z" fill="white"/>
<path d="M262.44 43.8107L260.362 51.5643L274.234 40.9703L262.44 43.8107Z" fill="#C1CCF8"/>
<path d="M260.362 51.5635L262.44 43.8085L253.65 35.4541L260.362 51.5635Z" fill="white"/>
<path d="M262.921 42.0156L274.709 39.1721L265.575 32.1084L262.921 42.0156Z" fill="#8BA1F6"/>
<path d="M254.132 33.6587L262.92 42.0157L265.575 32.1085L254.132 33.6587Z" fill="#C1CCF8"/>
</g>
<g clip-path="url(#clip4_9353_76896)">
<path d="M60.8076 77.9319C71.7436 75.0016 78.2336 63.7607 75.3033 52.8247C72.373 41.8886 61.1321 35.3987 50.196 38.329C39.26 41.2593 32.77 52.5002 35.7003 63.4362C38.6306 74.3723 49.8715 80.8622 60.8076 77.9319Z" fill="black"/>
<path d="M65.7063 60.2857L63.5487 64.2192C63.5018 64.3047 63.4375 64.38 63.3599 64.4405C63.2822 64.5011 63.1929 64.5455 63.0974 64.571L48.8929 68.3771C48.8251 68.3953 48.7536 68.3937 48.6872 68.3727C48.6209 68.3517 48.5625 68.3121 48.5192 68.2588C48.476 68.2055 48.4498 68.1407 48.4438 68.0726C48.4379 68.0044 48.4525 67.9358 48.4858 67.8751L50.6456 63.941C50.6924 63.8558 50.7565 63.7806 50.8338 63.7202C50.9112 63.6598 51.0002 63.6153 51.0954 63.5897L65.2992 59.7838C65.3669 59.7656 65.4384 59.7671 65.5048 59.7881C65.5711 59.8092 65.6295 59.8488 65.6729 59.9021C65.7161 59.9554 65.7423 60.0201 65.7482 60.0883C65.7541 60.1564 65.7396 60.225 65.7063 60.2857ZM61.0207 54.7844C60.9373 54.7339 60.844 54.7008 60.7465 54.6872C60.649 54.6736 60.5494 54.6798 60.4539 54.7054L46.2494 58.5115C46.1816 58.5297 46.1205 58.5667 46.0735 58.6181C46.0265 58.6695 45.9958 58.733 45.985 58.8008C45.9742 58.8686 45.9838 58.9378 46.0128 58.9998C46.0417 59.0617 46.0886 59.1139 46.1478 59.1498L49.9853 61.4769C50.0685 61.5273 50.1615 61.5604 50.2588 61.574C50.356 61.5877 50.4553 61.5817 50.5506 61.5563L64.7543 57.7504C64.8221 57.7322 64.8832 57.6952 64.9302 57.6438C64.9771 57.5924 65.0079 57.5289 65.0188 57.4611C65.0296 57.3933 65.0199 57.3242 64.9909 57.2622C64.962 57.2002 64.9151 57.1481 64.856 57.1121L61.0207 54.7844ZM45.7046 56.4782L59.9091 52.6721C60.0046 52.6465 60.0939 52.6021 60.1716 52.5416C60.2492 52.4811 60.3135 52.4057 60.3604 52.3203L62.518 48.3868C62.5513 48.3261 62.5658 48.2575 62.5599 48.1893C62.554 48.1212 62.5278 48.0565 62.4846 48.0032C62.4412 47.9499 62.3828 47.9103 62.3165 47.8892C62.2501 47.8682 62.1786 47.8667 62.1109 47.8848L47.9071 51.6907C47.8119 51.7164 47.7229 51.7608 47.6455 51.8213C47.5682 51.8817 47.5041 51.9569 47.4573 52.0421L45.2982 55.976C45.265 56.0366 45.2504 56.1052 45.2563 56.1733C45.2622 56.2413 45.2883 56.306 45.3314 56.3593C45.3746 56.4126 45.4329 56.4523 45.4991 56.4734C45.5654 56.4945 45.6368 56.4962 45.7046 56.4782Z" fill="#66FFF6"/>
</g>
<g clip-path="url(#clip5_9353_76896)">
<path d="M323.498 82.6214C330.673 78.4793 333.131 69.3054 328.989 62.131C324.846 54.9566 315.673 52.4985 308.498 56.6406C301.324 60.7828 298.866 69.9566 303.008 77.131C307.15 84.3054 316.324 86.7635 323.498 82.6214Z" fill="#42C1CA"/>
<path d="M314.322 67.6213C313.965 66.4238 313.72 65.3031 313.684 64.5002C313.632 64.1371 313.702 63.1544 313.957 62.3846C314.382 61.1021 315.248 60.3388 316.639 60.3903L316.631 60.5841L316.639 60.3903C317.348 60.4163 317.751 60.6319 317.842 61.0014C317.911 61.2761 317.762 61.6136 317.612 61.6738C317.422 61.8107 317.195 61.8878 316.919 61.857C316.683 61.8255 316.46 61.7303 316.274 61.5817C315.936 61.3273 315.683 61.3209 315.469 61.4805C315.313 61.5954 315.182 61.8135 315.161 61.9203L315.104 62.1868C315.057 62.3889 315.03 62.5953 315.025 62.8028C315.013 63.5221 315.282 64.6716 316.043 66.9368L318.992 65.7652L319.471 66.9408L316.479 68.1296L316.774 68.9145L316.848 69.1111C316.885 69.2134 316.926 69.3246 316.968 69.444L319.99 68.2437L320.458 69.4238L317.366 70.6524C317.844 72.2424 318.277 73.993 318.312 74.7621C318.364 75.1263 318.294 76.1073 318.039 76.8778C317.614 78.1596 316.748 78.9235 315.358 78.8721C314.649 78.846 314.245 78.6298 314.154 78.2603C314.085 77.9856 314.235 77.6487 314.384 77.5885C314.575 77.4517 314.801 77.3746 315.077 77.4047C315.291 77.4289 315.507 77.5176 315.723 77.6807C316.06 77.9344 316.313 77.9415 316.528 77.7819C316.683 77.6663 316.815 77.4482 316.835 77.3414C317.053 76.3083 316.78 74.7178 315.645 71.337L312.696 72.5079L312.216 71.3323L315.209 70.1434L314.914 69.3589C314.847 69.1829 314.783 69.0062 314.72 68.8287L311.71 70.0248L311.241 68.8451L314.322 67.6213V67.6213Z" fill="white"/>
</g>
<defs>
<filter id="filter0_f_9353_76896" x="80" y="216.631" width="172" height="44" filterUnits="userSpaceOnUse" color-interpolation-filters="sRGB">
<feFlood flood-opacity="0" result="BackgroundImageFix"/>
<feBlend mode="normal" in="SourceGraphic" in2="BackgroundImageFix" result="shape"/>
<feGaussianBlur stdDeviation="8" result="effect1_foregroundBlur_9353_76896"/>
</filter>
<clipPath id="clip0_9353_76896">
<rect width="54.3989" height="54.433" fill="white" transform="translate(243.086 2.63086) rotate(15)"/>
</clipPath>
<clipPath id="clip1_9353_76896">
<rect width="28.2442" height="28.2646" fill="white" transform="translate(302.07 55.6074)"/>
</clipPath>
<clipPath id="clip2_9353_76896">
<rect width="32.4301" height="32.4504" fill="white" transform="matrix(0.965879 -0.258993 0.258645 0.965972 36 49.0293)"/>
</clipPath>
<clipPath id="clip3_9353_76896">
<rect width="59" height="59" fill="white" transform="translate(243.641) rotate(15)"/>
</clipPath>
<clipPath id="clip4_9353_76896">
<rect width="41" height="41" fill="white" transform="translate(30.3945 43.6348) rotate(-15)"/>
</clipPath>
<clipPath id="clip5_9353_76896">
<rect width="30" height="30" fill="white" transform="translate(295.508 64.1406) rotate(-30)"/>
</clipPath>
</defs>
</svg>
