<svg version="1.1" id="Layer_1" xmlns="http://www.w3.org/2000/svg" xmlns:xlink="http://www.w3.org/1999/xlink" x="0px" y="0px"
	 width="100%" viewBox="0 0 500 500" enable-background="new 0 0 500 500" xml:space="preserve">
<path fill="#000000" opacity="1.000000" stroke="none" 
	d="
M501.000000,107.000000 
	C501.000000,238.666641 501.000000,369.833282 501.000000,500.999939 
	C334.333405,500.999939 167.666809,500.999939 1.000160,500.999969 
	C1.000107,334.333435 1.000107,167.666885 1.000053,1.000249 
	C167.666519,1.000166 334.333038,1.000166 500.999756,1.000083 
	C501.000000,36.166668 501.000000,71.333336 501.000000,107.000000 
M30.309008,491.825836 
	C47.875328,491.828064 65.441643,491.830292 83.932991,491.986786 
	C117.286911,491.936890 150.640823,491.886993 184.921097,491.993958 
	C279.967194,491.997742 375.013275,492.005341 470.059326,491.966980 
	C471.399567,491.966461 472.739502,491.389160 474.833374,491.007050 
	C477.242737,489.693329 479.652069,488.379639 482.773834,487.007843 
	C488.833801,482.892517 491.941681,477.062164 491.962067,469.847748 
	C492.054810,437.041656 492.021393,404.235077 491.994263,371.428741 
	C491.978699,352.615295 491.888458,333.801910 491.984741,314.063965 
	C491.945435,271.701843 491.906097,229.339737 492.037903,186.056976 
	C492.043213,134.741714 492.056396,83.426453 492.048431,32.111191 
	C492.046448,19.389612 479.420868,9.809379 470.126129,9.820703 
	C324.344330,9.998322 178.562210,9.934154 32.780266,10.037095 
	C30.185625,10.038927 27.591951,11.408876 24.245243,12.004675 
	C16.525692,14.023671 9.993981,23.642065 9.993946,33.001522 
	C9.993400,177.878128 9.974463,322.754761 10.092467,467.631256 
	C10.095801,471.725128 11.099625,475.978210 12.452277,479.873932 
	C14.544401,485.899292 22.656918,490.932709 29.411573,491.003265 
	C29.411573,491.003265 29.887857,491.044373 30.309008,491.825836 
z"/>
<path fill="#B9F4DA" opacity="1.000000" stroke="none" 
	d="
M24.997826,12.140451 
	C27.591951,11.408876 30.185625,10.038927 32.780266,10.037095 
	C178.562210,9.934154 324.344330,9.998322 470.126129,9.820703 
	C479.420868,9.809379 492.046448,19.389612 492.048431,32.111191 
	C492.056396,83.426453 492.043213,134.741714 491.757324,186.528931 
	C491.476746,187.000900 491.101044,187.108215 490.811127,187.083527 
	C490.330811,187.024628 490.140381,186.990448 490.059570,186.500671 
	C490.208069,167.717300 490.270508,149.389496 490.280670,131.061676 
	C490.298218,99.401733 490.237549,67.741646 490.320282,36.081917 
	C490.337006,29.682169 489.082886,23.900179 484.664276,19.009588 
	C479.567719,13.368622 473.172668,11.769670 465.783875,11.774044 
	C322.647583,11.858791 179.511246,11.827559 36.374939,11.886755 
	C32.588501,11.888321 28.802374,12.634295 25.010855,12.809967 
	C25.005610,12.586814 24.997826,12.140451 24.997826,12.140451 
z"/>
<path fill="#DEFEF2" opacity="1.000000" stroke="none" 
	d="
M24.621534,12.072563 
	C24.997826,12.140451 25.005610,12.586814 24.747374,13.015516 
	C15.772092,18.107746 11.467854,25.220913 11.472375,35.268353 
	C11.536972,178.828354 11.508034,322.388397 11.532227,465.948425 
	C11.534409,478.897675 16.714148,485.928864 28.973042,490.287720 
	C28.970318,490.470520 28.963114,490.836151 28.963114,490.836151 
	C22.656918,490.932709 14.544401,485.899292 12.452277,479.873932 
	C11.099625,475.978210 10.095801,471.725128 10.092467,467.631256 
	C9.974463,322.754761 9.993400,177.878128 9.993946,33.001522 
	C9.993981,23.642065 16.525692,14.023671 24.621534,12.072563 
z"/>
<path fill="#E2FEF6" opacity="1.000000" stroke="none" 
	d="
M474.079559,491.081055 
	C472.739502,491.389160 471.399567,491.966461 470.059326,491.966980 
	C375.013275,492.005341 279.967194,491.997742 184.460495,491.743958 
	C183.999893,491.493927 184.002518,491.150757 184.045227,490.831573 
	C184.073532,490.298828 184.059128,490.085297 184.366608,490.011444 
	C185.131577,490.298462 185.574677,490.445831 186.114014,490.700867 
	C186.210251,490.808563 186.628952,490.854919 186.628952,490.854919 
	C186.628952,490.854919 186.973007,490.616913 187.389984,490.519440 
	C189.227417,490.479553 190.647858,490.537140 192.280792,490.737091 
	C193.306061,490.784851 194.118835,490.690277 195.360657,490.505005 
	C209.442657,490.391205 223.095642,490.340759 236.748581,490.349670 
	C298.877563,490.390259 361.006531,490.445068 423.135498,490.500671 
	C438.116760,490.514099 453.098022,490.549896 468.400726,490.743958 
	C470.470612,490.930481 472.219055,490.948456 473.995483,490.995117 
	C474.023499,491.023773 474.079559,491.081024 474.079559,491.081055 
z"/>
<path fill="#E2FEF6" opacity="1.000000" stroke="none" 
	d="
M491.831848,314.988495 
	C491.888458,333.801910 491.978699,352.615295 491.994263,371.428741 
	C492.021393,404.235077 492.054810,437.041656 491.962067,469.847748 
	C491.941681,477.062164 488.833801,482.892517 482.407410,487.025818 
	C482.041016,487.043762 482.020416,487.021820 481.777527,486.716614 
	C488.482422,480.409332 490.652832,472.778168 490.608826,463.712921 
	C490.377777,416.119385 490.505188,368.524109 490.484589,320.929443 
	C490.483734,318.945465 490.249359,316.961609 490.391052,314.989258 
	C490.835266,314.978027 491.012207,314.955261 491.349609,314.948730 
	C491.510101,314.964966 491.831848,314.988495 491.831848,314.988495 
z"/>
<path fill="#FBFFFE" opacity="1.000000" stroke="none" 
	d="
M491.908295,314.526245 
	C491.831848,314.988495 491.510101,314.964966 491.287781,314.489166 
	C491.077301,271.711639 491.089172,229.409927 491.101044,187.108215 
	C491.101044,187.108215 491.476746,187.000900 491.671753,186.989258 
	C491.906097,229.339737 491.945435,271.701843 491.908295,314.526245 
z"/>
<path fill="#FBFFFF" opacity="1.000000" stroke="none" 
	d="
M184.002518,491.150757 
	C184.002518,491.150757 183.999893,491.493927 183.997314,491.665527 
	C150.640823,491.886993 117.286911,491.936890 83.477097,491.733398 
	C83.021194,491.480042 83.040253,491.127747 83.501755,491.063599 
	C92.424973,490.979858 100.886765,490.928589 109.348396,490.946686 
	C134.233139,490.999969 159.117813,491.080750 184.002518,491.150757 
z"/>
<path fill="#E5FFF7" opacity="1.000000" stroke="none" 
	d="
M83.040253,491.127747 
	C83.040253,491.127747 83.021194,491.480042 83.014580,491.656311 
	C65.441643,491.830292 47.875328,491.828064 30.427332,491.420166 
	C31.376572,490.837677 32.207489,490.660828 33.479366,490.426697 
	C49.476124,490.480286 65.031914,490.591217 80.985916,490.831207 
	C81.936165,491.016113 82.488213,491.071930 83.040253,491.127747 
z"/>
<path fill="#E2FEF6" opacity="1.000000" stroke="none" 
	d="
M482.051208,487.054871 
	C479.652069,488.379639 477.242737,489.693329 474.456482,491.044037 
	C474.079559,491.081024 474.023499,491.023773 473.996887,490.745850 
	C473.970276,490.467957 473.984192,489.969635 474.301025,489.806335 
	C477.085358,488.769318 479.552887,487.895569 482.020416,487.021790 
	C482.020416,487.021820 482.041016,487.043762 482.051208,487.054871 
z"/>
<path fill="#B5F3D8" opacity="1.000000" stroke="none" 
	d="
M33.038403,490.484009 
	C32.207489,490.660828 31.376572,490.837677 30.216757,491.029449 
	C29.887857,491.044373 29.411573,491.003265 29.187344,490.919708 
	C28.963114,490.836151 28.970318,490.470520 29.382742,490.213776 
	C30.876245,490.132690 31.957323,490.308350 33.038403,490.484009 
z"/>
<path fill="#02BE64" opacity="1.000000" stroke="none" 
	d="
M33.479366,490.426697 
	C31.957323,490.308350 30.876245,490.132690 29.385464,490.030975 
	C16.714148,485.928864 11.534409,478.897675 11.532227,465.948425 
	C11.508034,322.388397 11.536972,178.828354 11.472375,35.268353 
	C11.467854,25.220913 15.772092,18.107746 24.752619,13.238669 
	C28.802374,12.634295 32.588501,11.888321 36.374939,11.886755 
	C179.511246,11.827559 322.647583,11.858791 465.783875,11.774044 
	C473.172668,11.769670 479.567719,13.368622 484.664276,19.009588 
	C489.082886,23.900179 490.337006,29.682169 490.320282,36.081917 
	C490.237549,67.741646 490.298218,99.401733 490.280670,131.061676 
	C490.270508,149.389496 490.208069,167.717300 489.593994,186.479416 
	C466.012329,186.984558 443.005768,187.055405 419.753662,187.009018 
	C419.314789,186.594101 419.121490,186.296402 419.022400,185.538818 
	C419.128601,158.864716 419.249084,132.649567 419.026581,106.437309 
	C418.995941,102.826431 417.264343,99.229980 416.262695,95.454025 
	C416.205170,95.281189 415.961456,95.010384 415.959045,94.736023 
	C415.689484,94.233192 415.422333,94.004723 415.067566,93.518921 
	C414.633362,92.847633 414.286804,92.433678 413.920776,91.755829 
	C413.616089,91.308426 413.330872,91.124916 413.022827,90.969849 
	C413.000000,90.998283 413.057739,90.953934 413.012268,90.646980 
	C412.331329,89.869003 411.695801,89.397987 411.031860,88.963188 
	C411.003387,88.999413 411.074524,88.940666 411.002930,88.683319 
	C410.623993,88.278580 410.316650,88.131187 409.856140,87.759872 
	C409.225403,87.291191 408.747803,87.046425 408.148743,86.553047 
	C407.684479,86.209442 407.341644,86.114441 406.865417,85.896790 
	C406.731964,85.774139 406.390045,85.653748 406.147339,85.366280 
	C402.526703,84.334618 399.149536,82.944336 395.770660,82.940262 
	C299.170441,82.823837 202.570007,82.817764 105.969864,82.964294 
	C102.507950,82.969543 99.048645,84.704582 95.420441,85.692398 
	C95.252754,85.751358 94.994690,85.995857 94.715042,85.998077 
	C94.191368,86.261955 93.947342,86.523621 93.519928,86.836258 
	C93.336525,86.887230 93.036896,87.122093 92.772675,87.123062 
	C92.327446,87.407066 92.146431,87.690109 91.983002,87.986389 
	C92.000595,87.999626 91.973465,87.964645 91.711121,88.011002 
	C91.270874,88.349022 91.092972,88.640678 90.955322,88.965378 
	C90.995583,88.998421 90.930176,88.917465 90.624634,88.970291 
	C89.856636,89.663528 89.394188,90.303932 88.965881,90.970642 
	C89.000023,90.996941 88.944244,90.931007 88.689209,91.007965 
	C88.301620,91.395317 88.169075,91.705704 87.825577,92.186501 
	C87.351280,92.823708 87.087936,93.290512 86.571411,93.869652 
	C86.208748,94.319420 86.099258,94.656845 85.864777,95.120285 
	C85.739792,95.246300 85.614502,95.578430 85.384186,95.743851 
	C85.103714,96.272621 85.053551,96.635963 84.907028,97.160446 
	C84.810669,97.321571 84.755463,97.692986 84.456779,97.955711 
	C83.719872,101.648544 82.901337,105.078384 82.898834,108.508804 
	C82.829620,203.365234 82.840973,298.221741 82.859657,393.078217 
	C82.860046,395.059143 83.104408,397.040039 83.216660,399.349091 
	C83.210037,400.115356 83.221725,400.553467 83.076370,401.437500 
	C82.893806,429.733398 82.909058,457.583557 82.746323,485.432709 
	C82.736031,487.193329 81.339378,488.945831 80.587700,490.702118 
	C65.031914,490.591217 49.476124,490.480286 33.479366,490.426697 
z"/>
<path fill="#D8F4E9" opacity="1.000000" stroke="none" 
	d="
M419.999237,187.126236 
	C443.005768,187.055405 466.012329,186.984558 489.484436,186.934998 
	C490.140381,186.990448 490.330811,187.024628 490.811127,187.083527 
	C491.089172,229.409927 491.077301,271.711639 491.127258,314.472961 
	C491.012207,314.955261 490.835266,314.978027 489.913696,315.038483 
	C466.114197,315.008698 443.059296,314.941223 420.320068,314.606323 
	C421.786194,314.230194 422.936523,314.027802 424.087067,314.026703 
	C444.397675,314.007263 464.709229,313.910889 485.018097,314.099365 
	C488.999329,314.136322 490.070953,312.941467 490.057281,309.018585 
	C489.922577,270.395569 489.911285,231.771667 490.068054,193.148834 
	C490.085266,188.902969 488.749573,187.862671 484.685730,187.901596 
	C464.876373,188.091431 445.064148,188.008911 425.253143,187.949783 
	C423.501038,187.944550 421.750488,187.413223 419.999237,187.126236 
z"/>
<path fill="#02BE64" opacity="1.000000" stroke="none" 
	d="
M420.004425,314.873718 
	C443.059296,314.941223 466.114197,315.008698 489.646423,315.026917 
	C490.249359,316.961609 490.483734,318.945465 490.484589,320.929443 
	C490.505188,368.524109 490.377777,416.119385 490.608826,463.712921 
	C490.652832,472.778168 488.482422,480.409332 481.777527,486.716614 
	C479.552887,487.895569 477.085358,488.769318 473.873535,489.757263 
	C471.445892,490.106140 469.762573,490.340759 468.079285,490.575378 
	C453.098022,490.549896 438.116760,490.514099 423.135498,490.500671 
	C361.006531,490.445068 298.877563,490.390259 236.748581,490.349670 
	C223.095642,490.340759 209.442657,490.391205 195.020416,490.341766 
	C193.523514,490.377716 192.795914,490.486206 192.068298,490.594727 
	C190.647858,490.537140 189.227417,490.479553 187.153961,490.400513 
	C186.339874,490.450439 186.178833,490.521790 186.017776,490.593170 
	C185.574677,490.445831 185.131577,490.298462 184.426773,489.555115 
	C184.082321,465.971313 183.999588,442.983490 183.954544,419.963989 
	C183.992249,419.932343 183.935471,419.851929 184.117493,419.730743 
	C184.528183,419.426239 184.729523,419.216644 184.937119,419.004028 
	C184.970703,419.027252 185.022751,418.964325 185.481476,419.052307 
	C255.641541,419.145386 325.342987,419.194336 395.043976,419.035950 
	C398.830536,419.027344 402.613129,417.285034 406.567139,416.290070 
	C406.736664,416.230377 407.000458,415.986206 407.278503,415.985291 
	C407.799866,415.725250 408.043243,415.466125 408.545624,415.128662 
	C409.208008,414.708466 409.611389,414.366699 410.278015,413.981628 
	C410.720825,413.646667 410.900391,413.355042 411.042297,413.031921 
	C411.004639,413.000458 411.065063,413.077698 411.369629,413.027740 
	C412.151062,412.349274 412.627960,411.720764 413.056274,411.046967 
	C413.007629,411.001678 413.089355,411.106293 413.351624,411.037750 
	C413.764160,410.658325 413.914429,410.347473 414.283508,409.877930 
	C414.735260,409.237091 414.968231,408.754913 415.450256,408.150543 
	C415.790100,407.684021 415.880920,407.339661 416.091248,406.857483 
	C416.210754,406.719635 416.321899,406.372162 416.610107,406.130249 
	C417.631409,403.356110 418.992035,400.826080 419.001099,398.291290 
	C419.099091,370.862701 418.984680,343.433319 419.026184,315.749146 
	C419.417511,315.287292 419.710968,315.080505 420.004425,314.873718 
z"/>
<path fill="#B5F3D8" opacity="1.000000" stroke="none" 
	d="
M183.916840,419.995636 
	C183.999588,442.983490 184.082321,465.971313 184.104889,489.415466 
	C184.059128,490.085297 184.073532,490.298828 184.045227,490.831573 
	C159.117813,491.080750 134.233139,490.999969 109.348396,490.946686 
	C100.886765,490.928589 92.424973,490.979858 83.501755,491.063599 
	C82.488213,491.071930 81.936165,491.016113 80.985901,490.831207 
	C81.339378,488.945831 82.736031,487.193329 82.746323,485.432709 
	C82.909058,457.583557 82.893806,429.733398 83.292175,401.784180 
	C83.743820,403.508087 83.890198,405.331299 83.891258,407.154541 
	C83.906342,432.964935 84.009834,458.776215 83.798691,484.584869 
	C83.762184,489.047577 85.061234,490.166077 89.425171,490.137695 
	C118.398186,489.949097 147.373032,490.043976 176.347275,490.039276 
	C182.712097,490.038239 183.011673,489.749054 183.017349,483.179077 
	C183.034058,463.862915 183.000458,444.546661 183.062241,425.230682 
	C183.067841,423.484772 183.619019,421.740601 183.916840,419.995636 
z"/>
<path fill="#B5F3D8" opacity="1.000000" stroke="none" 
	d="
M468.400726,490.743958 
	C469.762573,490.340759 471.445892,490.106140 473.556702,489.920563 
	C473.984192,489.969635 473.970276,490.467957 473.968872,490.717194 
	C472.219055,490.948456 470.470612,490.930481 468.400726,490.743958 
z"/>
<path fill="#B5F3D8" opacity="1.000000" stroke="none" 
	d="
M192.280792,490.737091 
	C192.795914,490.486206 193.523514,490.377716 194.591370,490.432465 
	C194.118835,490.690277 193.306061,490.784851 192.280792,490.737091 
z"/>
<path fill="#B5F3D8" opacity="1.000000" stroke="none" 
	d="
M186.114014,490.700867 
	C186.178833,490.521790 186.339874,490.450439 186.736969,490.497986 
	C186.973007,490.616913 186.628952,490.854919 186.628952,490.854919 
	C186.628952,490.854919 186.210251,490.808563 186.114014,490.700867 
z"/>
<path fill="#FFFFFF" opacity="1.000000" stroke="none" 
	d="
M183.954544,419.963989 
	C183.619019,421.740601 183.067841,423.484772 183.062241,425.230682 
	C183.000458,444.546661 183.034058,463.862915 183.017349,483.179077 
	C183.011673,489.749054 182.712097,490.038239 176.347275,490.039276 
	C147.373032,490.043976 118.398186,489.949097 89.425171,490.137695 
	C85.061234,490.166077 83.762184,489.047577 83.798691,484.584869 
	C84.009834,458.776215 83.906342,432.964935 83.891258,407.154541 
	C83.890198,405.331299 83.743820,403.508087 83.449211,401.338226 
	C83.221725,400.553467 83.210037,400.115356 83.450241,399.011047 
	C83.769913,397.519470 83.894958,396.694275 83.897377,395.868683 
	C84.189301,296.476807 84.472137,197.084900 84.755463,97.692986 
	C84.755463,97.692986 84.810669,97.321571 85.138962,96.991096 
	C85.516335,96.299889 85.565414,95.939163 85.614502,95.578430 
	C85.614502,95.578430 85.739792,95.246300 86.113640,95.001572 
	C86.599861,94.423676 86.712234,94.090492 86.824600,93.757317 
	C87.087936,93.290512 87.351280,92.823708 88.070862,92.099243 
	C88.666138,91.538048 88.805191,91.234528 88.944244,90.931007 
	C88.944244,90.931007 89.000023,90.996941 89.295471,90.948006 
	C90.037331,90.238533 90.483749,89.577995 90.930176,88.917465 
	C90.930176,88.917465 90.995583,88.998421 91.214951,88.914879 
	C91.614029,88.542442 91.793747,88.253548 91.973465,87.964645 
	C91.973465,87.964645 92.000595,87.999626 92.232307,87.953125 
	C92.654984,87.645119 92.845940,87.383606 93.036896,87.122093 
	C93.036896,87.122093 93.336525,86.887230 93.801147,86.844345 
	C94.508743,86.532921 94.751717,86.264389 94.994690,85.995857 
	C94.994690,85.995857 95.252754,85.751358 95.840828,85.779984 
	C104.325096,85.172882 112.218636,84.029449 120.117950,83.988007 
	C157.227020,83.793335 194.342911,83.503639 231.446548,83.992935 
	C289.759888,84.761948 348.110321,81.636780 406.390045,85.653748 
	C406.390045,85.653748 406.731964,85.774139 406.993408,86.141754 
	C407.593292,86.606796 407.931763,86.704224 408.270233,86.801651 
	C408.747803,87.046425 409.225403,87.291191 409.936768,88.010323 
	C410.471893,88.636681 410.773224,88.788673 411.074524,88.940666 
	C411.074524,88.940666 411.003387,88.999413 411.049744,89.292252 
	C411.749969,90.041374 412.403839,90.497650 413.057739,90.953934 
	C413.057739,90.953934 413.000000,90.998283 413.057678,91.227081 
	C413.390289,91.643837 413.665253,91.831787 413.940216,92.019730 
	C414.286804,92.433678 414.633362,92.847633 415.074280,93.790512 
	C415.432892,94.549759 415.697174,94.780075 415.961456,95.010391 
	C415.961456,95.010384 416.205170,95.281189 416.183929,95.872757 
	C416.807983,103.503403 417.926880,110.536911 418.009674,117.582581 
	C418.257080,138.635590 418.078949,159.693405 418.134491,180.749176 
	C418.139099,182.499710 418.651642,184.248901 418.928223,185.998703 
	C419.121490,186.296402 419.314789,186.594101 419.753662,187.009018 
	C421.750488,187.413223 423.501038,187.944550 425.253143,187.949783 
	C445.064148,188.008911 464.876373,188.091431 484.685730,187.901596 
	C488.749573,187.862671 490.085266,188.902969 490.068054,193.148834 
	C489.911285,231.771667 489.922577,270.395569 490.057281,309.018585 
	C490.070953,312.941467 488.999329,314.136322 485.018097,314.099365 
	C464.709229,313.910889 444.397675,314.007263 424.087067,314.026703 
	C422.936523,314.027802 421.786194,314.230194 420.320068,314.606323 
	C419.710968,315.080505 419.417511,315.287292 418.769348,316.069946 
	C418.309265,318.622070 418.172729,320.597260 418.103302,322.574799 
	C417.122711,350.498962 420.182404,378.508942 416.321899,406.372162 
	C416.321899,406.372162 416.210754,406.719635 415.848389,406.988159 
	C415.391083,407.595367 415.296143,407.934052 415.201233,408.272705 
	C414.968231,408.754913 414.735260,409.237091 414.029358,409.957092 
	C413.400787,410.498718 413.245087,410.802521 413.089355,411.106323 
	C413.089355,411.106293 413.007629,411.001678 412.724091,411.057068 
	C411.982056,411.767517 411.523560,412.422607 411.065063,413.077698 
	C411.065063,413.077698 411.004639,413.000458 410.782928,413.081909 
	C410.379059,413.450562 410.196899,413.737732 410.014771,414.024902 
	C409.611389,414.366699 409.208008,414.708466 408.266785,415.120941 
	C407.486084,415.456482 407.243286,415.721344 407.000458,415.986206 
	C407.000458,415.986206 406.736664,416.230377 406.147217,416.207336 
	C397.831818,416.822388 390.107117,417.996094 382.379730,418.014130 
	C318.509613,418.163391 254.638977,418.091064 190.768539,418.134979 
	C188.853088,418.136292 186.938004,418.675781 185.022751,418.964325 
	C185.022751,418.964325 184.970703,419.027252 184.681732,419.014832 
	C184.240311,419.285583 184.087891,419.568756 183.935471,419.851929 
	C183.935471,419.851929 183.992249,419.932343 183.954544,419.963989 
M288.500000,186.997330 
	C253.910110,186.997330 219.320221,186.997330 184.591522,186.997330 
	C184.591522,229.889053 184.591522,272.274445 184.591522,314.649872 
	C229.043335,314.649872 273.231049,314.649872 317.317841,314.649872 
	C317.317841,271.926819 317.317841,229.557434 317.317841,186.997330 
	C307.809967,186.997330 298.654968,186.997330 288.500000,186.997330 
z"/>
<path fill="#B5F3D8" opacity="1.000000" stroke="none" 
	d="
M406.147339,85.366280 
	C348.110321,81.636780 289.759888,84.761948 231.446548,83.992935 
	C194.342911,83.503639 157.227020,83.793335 120.117950,83.988007 
	C112.218636,84.029449 104.325096,85.172882 96.008514,85.721031 
	C99.048645,84.704582 102.507950,82.969543 105.969864,82.964294 
	C202.570007,82.817764 299.170441,82.823837 395.770660,82.940262 
	C399.149536,82.944336 402.526703,84.334618 406.147339,85.366280 
z"/>
<path fill="#B5F3D8" opacity="1.000000" stroke="none" 
	d="
M84.456779,97.955711 
	C84.472137,197.084900 84.189301,296.476807 83.897377,395.868683 
	C83.894958,396.694275 83.769913,397.519470 83.468544,398.682892 
	C83.104408,397.040039 82.860046,395.059143 82.859657,393.078217 
	C82.840973,298.221741 82.829620,203.365234 82.898834,108.508804 
	C82.901337,105.078384 83.719872,101.648544 84.456779,97.955711 
z"/>
<path fill="#B5F3D8" opacity="1.000000" stroke="none" 
	d="
M419.022400,185.538818 
	C418.651642,184.248901 418.139099,182.499710 418.134491,180.749176 
	C418.078949,159.693405 418.257080,138.635590 418.009674,117.582581 
	C417.926880,110.536911 416.807983,103.503403 416.241455,96.045593 
	C417.264343,99.229980 418.995941,102.826431 419.026581,106.437309 
	C419.249084,132.649567 419.128601,158.864716 419.022400,185.538818 
z"/>
<path fill="#B5F3D8" opacity="1.000000" stroke="none" 
	d="
M413.012268,90.646973 
	C412.403839,90.497650 411.749969,90.041374 411.078186,89.256027 
	C411.695801,89.397987 412.331329,89.869003 413.012268,90.646973 
z"/>
<path fill="#B5F3D8" opacity="1.000000" stroke="none" 
	d="
M90.624634,88.970291 
	C90.483749,89.577995 90.037331,90.238533 89.261322,90.921707 
	C89.394188,90.303932 89.856636,89.663528 90.624634,88.970291 
z"/>
<path fill="#B5F3D8" opacity="1.000000" stroke="none" 
	d="
M94.715042,85.998077 
	C94.751717,86.264389 94.508743,86.532921 93.984543,86.793365 
	C93.947342,86.523621 94.191368,86.261955 94.715042,85.998077 
z"/>
<path fill="#B5F3D8" opacity="1.000000" stroke="none" 
	d="
M408.148743,86.553047 
	C407.931763,86.704224 407.593292,86.606796 407.126831,86.264404 
	C407.341644,86.114441 407.684479,86.209442 408.148743,86.553047 
z"/>
<path fill="#B5F3D8" opacity="1.000000" stroke="none" 
	d="
M92.772675,87.123062 
	C92.845940,87.383606 92.654984,87.645119 92.214722,87.939888 
	C92.146431,87.690109 92.327446,87.407066 92.772675,87.123062 
z"/>
<path fill="#B5F3D8" opacity="1.000000" stroke="none" 
	d="
M91.711121,88.011002 
	C91.793747,88.253548 91.614029,88.542442 91.174690,88.881836 
	C91.092972,88.640678 91.270874,88.349022 91.711121,88.011002 
z"/>
<path fill="#B5F3D8" opacity="1.000000" stroke="none" 
	d="
M415.959045,94.736031 
	C415.697174,94.780075 415.432892,94.549759 415.161896,94.047852 
	C415.422333,94.004723 415.689484,94.233192 415.959045,94.736031 
z"/>
<path fill="#B5F3D8" opacity="1.000000" stroke="none" 
	d="
M411.002930,88.683319 
	C410.773224,88.788673 410.471893,88.636681 410.089935,88.234238 
	C410.316650,88.131187 410.623993,88.278580 411.002930,88.683319 
z"/>
<path fill="#B5F3D8" opacity="1.000000" stroke="none" 
	d="
M88.689209,91.007965 
	C88.805191,91.234528 88.666138,91.538048 88.281815,91.928833 
	C88.169075,91.705704 88.301620,91.395317 88.689209,91.007965 
z"/>
<path fill="#B5F3D8" opacity="1.000000" stroke="none" 
	d="
M413.920776,91.755836 
	C413.665253,91.831787 413.390289,91.643837 413.080505,91.198647 
	C413.330872,91.124916 413.616089,91.308426 413.920776,91.755836 
z"/>
<path fill="#B5F3D8" opacity="1.000000" stroke="none" 
	d="
M86.571411,93.869652 
	C86.712234,94.090492 86.599861,94.423676 86.238632,94.875565 
	C86.099258,94.656845 86.208748,94.319420 86.571411,93.869652 
z"/>
<path fill="#B5F3D8" opacity="1.000000" stroke="none" 
	d="
M85.384186,95.743851 
	C85.565414,95.939163 85.516335,96.299889 85.235321,96.829971 
	C85.053551,96.635963 85.103714,96.272621 85.384186,95.743851 
z"/>
<path fill="#B5F3D8" opacity="1.000000" stroke="none" 
	d="
M185.481476,419.052307 
	C186.938004,418.675781 188.853088,418.136292 190.768539,418.134979 
	C254.638977,418.091064 318.509613,418.163391 382.379730,418.014130 
	C390.107117,417.996094 397.831818,416.822388 405.977661,416.267029 
	C402.613129,417.285034 398.830536,419.027344 395.043976,419.035950 
	C325.342987,419.194336 255.641541,419.145386 185.481476,419.052307 
z"/>
<path fill="#B5F3D8" opacity="1.000000" stroke="none" 
	d="
M416.610107,406.130249 
	C420.182404,378.508942 417.122711,350.498962 418.103302,322.574799 
	C418.172729,320.597260 418.309265,318.622070 418.671448,316.324982 
	C418.984680,343.433319 419.099091,370.862701 419.001099,398.291290 
	C418.992035,400.826080 417.631409,403.356110 416.610107,406.130249 
z"/>
<path fill="#B5F3D8" opacity="1.000000" stroke="none" 
	d="
M411.369629,413.027771 
	C411.523560,412.422607 411.982056,411.767517 412.772705,411.102356 
	C412.627960,411.720764 412.151062,412.349274 411.369629,413.027771 
z"/>
<path fill="#B5F3D8" opacity="1.000000" stroke="none" 
	d="
M410.278015,413.981628 
	C410.196899,413.737732 410.379059,413.450562 410.820618,413.113403 
	C410.900391,413.355042 410.720825,413.646667 410.278015,413.981628 
z"/>
<path fill="#B5F3D8" opacity="1.000000" stroke="none" 
	d="
M184.117493,419.730743 
	C184.087891,419.568756 184.240311,419.285583 184.648132,418.991638 
	C184.729523,419.216644 184.528183,419.426239 184.117493,419.730743 
z"/>
<path fill="#B5F3D8" opacity="1.000000" stroke="none" 
	d="
M407.278503,415.985291 
	C407.243286,415.721344 407.486084,415.456482 408.007751,415.199341 
	C408.043243,415.466125 407.799866,415.725250 407.278503,415.985291 
z"/>
<path fill="#B5F3D8" opacity="1.000000" stroke="none" 
	d="
M413.351624,411.037781 
	C413.245087,410.802521 413.400787,410.498718 413.810577,410.115753 
	C413.914429,410.347473 413.764160,410.658325 413.351624,411.037781 
z"/>
<path fill="#B5F3D8" opacity="1.000000" stroke="none" 
	d="
M415.450256,408.150543 
	C415.296143,407.934052 415.391083,407.595367 415.728882,407.126007 
	C415.880920,407.339661 415.790100,407.684021 415.450256,408.150543 
z"/>
<path fill="#020202" opacity="1.000000" stroke="none" 
	d="
M289.000000,186.997330 
	C298.654968,186.997330 307.809967,186.997330 317.317841,186.997330 
	C317.317841,229.557434 317.317841,271.926819 317.317841,314.649872 
	C273.231049,314.649872 229.043335,314.649872 184.591522,314.649872 
	C184.591522,272.274445 184.591522,229.889053 184.591522,186.997330 
	C219.320221,186.997330 253.910110,186.997330 289.000000,186.997330 
z"/>
</svg>