<?xml version="1.0" encoding="UTF-8"?>
<!DOCTYPE svg PUBLIC "-//W3C//DTD SVG 1.1//EN" "http://www.w3.org/Graphics/SVG/1.1/DTD/svg11.dtd">
<svg>
<g><path style="opacity:1" fill="#0abe65" d="M 5.5,3.5 C 51.5,3.5 97.5,3.5 143.5,3.5C 144.833,3.5 145.5,4.16667 145.5,5.5C 145.5,21.8333 145.5,38.1667 145.5,54.5C 138.833,54.5 132.167,54.5 125.5,54.5C 125.826,45.6506 125.493,36.9839 124.5,28.5C 123.71,27.2058 122.71,26.0391 121.5,25C 90.1667,24.3333 58.8333,24.3333 27.5,25C 26.6667,25.8333 25.8333,26.6667 25,27.5C 24.5,67.1653 24.3333,106.832 24.5,146.5C 19.1667,146.5 13.8333,146.5 8.5,146.5C 7.20895,146.737 6.20895,146.404 5.5,145.5C 5.01328,144.527 4.51328,143.527 4,142.5C 3.50001,96.8345 3.33334,51.1679 3.5,5.5C 3.5,4.16667 4.16667,3.5 5.5,3.5 Z"/></g>
<g><path style="opacity:0.961" fill="#3ac882" d="M 145.5,5.5 C 146.338,5.84171 146.672,6.50838 146.5,7.5C 146.5,23.5 146.5,39.5 146.5,55.5C 139.167,55.5 131.833,55.5 124.5,55.5C 124.5,46.5 124.5,37.5 124.5,28.5C 125.493,36.9839 125.826,45.6506 125.5,54.5C 132.167,54.5 138.833,54.5 145.5,54.5C 145.5,38.1667 145.5,21.8333 145.5,5.5 Z"/></g>
<g><path style="opacity:1" fill="#fefefe" d="M 146.5,7.5 C 147.833,52.1667 147.833,96.8333 146.5,141.5C 146.5,125.5 146.5,109.5 146.5,93.5C 139.167,93.5 131.833,93.5 124.5,93.5C 124.5,102.167 124.5,110.833 124.5,119.5C 124.141,121.371 123.141,122.871 121.5,124C 99.1692,124.5 76.8358,124.667 54.5,124.5C 54.175,132.019 54.5084,139.352 55.5,146.5C 39.9906,147.764 24.3239,147.764 8.5,146.5C 13.8333,146.5 19.1667,146.5 24.5,146.5C 24.3333,106.832 24.5,67.1653 25,27.5C 25.8333,26.6667 26.6667,25.8333 27.5,25C 58.8333,24.3333 90.1667,24.3333 121.5,25C 122.71,26.0391 123.71,27.2058 124.5,28.5C 124.5,37.5 124.5,46.5 124.5,55.5C 131.833,55.5 139.167,55.5 146.5,55.5C 146.5,39.5 146.5,23.5 146.5,7.5 Z"/></g>
<g><path style="opacity:1" fill="#000000" d="M 54.5,55.5 C 67.8333,55.5 81.1667,55.5 94.5,55.5C 94.5,68.1667 94.5,80.8333 94.5,93.5C 81.1667,93.5 67.8333,93.5 54.5,93.5C 54.5,80.8333 54.5,68.1667 54.5,55.5 Z"/></g>
<g><path style="opacity:1" fill="#23c069" d="M 145.5,143.5 C 144.64,145.614 142.973,146.78 140.5,147C 112.137,147.808 83.8035,147.642 55.5,146.5C 54.5084,139.352 54.175,132.019 54.5,124.5C 76.8358,124.667 99.1692,124.5 121.5,124C 123.141,122.871 124.141,121.371 124.5,119.5C 125.493,111.35 125.826,103.017 125.5,94.5C 132.167,94.5 138.833,94.5 145.5,94.5C 145.5,110.833 145.5,127.167 145.5,143.5 Z"/></g>
<g><path style="opacity:0.96" fill="#3bc883" d="M 146.5,141.5 C 146.672,142.492 146.338,143.158 145.5,143.5C 145.5,127.167 145.5,110.833 145.5,94.5C 138.833,94.5 132.167,94.5 125.5,94.5C 125.826,103.017 125.493,111.35 124.5,119.5C 124.5,110.833 124.5,102.167 124.5,93.5C 131.833,93.5 139.167,93.5 146.5,93.5C 146.5,109.5 146.5,125.5 146.5,141.5 Z"/></g>
</svg>
