<?xml version="1.0" encoding="UTF-8"?>
<svg fill="none" viewBox="0 0 240 183" xmlns="http://www.w3.org/2000/svg">
<g clip-path="url(#i)">
<path d="m135.07 111.04 0.042 2.468-49.549-16.894-1.4275-1.8641 50.934 16.29z" fill="#fff"/>
<path d="m136.12 106.86c0.018-0.355-0.013-0.711-0.092-1.058-0.188-0.74-0.544-1.427-1.041-2.007-0.566-0.663-1.235-1.23-1.982-1.679-0.874-0.517-1.807-0.929-2.779-1.226l-0.663-0.185c-0.227-0.058-0.454-0.117-0.689-0.159l-0.714-0.143-0.739-0.109-13.51-1.6793-14.131-1.8053-11.067-1.4274c-2.7877-0.3611-4.5006-0.5878-4.551-0.6046l50.934 16.29v2.468l0.84-3.056c0-0.109 0.058-0.227 0.084-0.336 0.025-0.109 0.042-0.226 0.05-0.336 8e-3 -0.109 0-0.218 0-0.327 8e-3 -0.112 8e-3 -0.224 0-0.336v-2.401c0.02 0.037 0.037 0.077 0.05 0.117zm-0.092 0.84c-0.021 0.113-0.049 0.226-0.084 0.336 0.041-0.183 0.069-0.368 0.084-0.555 7e-3 0.073 7e-3 0.146 0 0.219zm0.092-0.655v0.327 0.059c0.023-0.159 0.037-0.318 0.042-0.478l-0.042 0.092z" fill="#fff"/>
<path d="m110.05 122.68c-1.369-1.116-2.932-1.97-4.61-2.519l-21.47-7.356c-1.8092-0.606-3.6943-0.956-5.6005-1.041-1.9683-0.099-3.9413 0.036-5.8776 0.403-1.8932 0.33-3.7378 0.894-5.4914 1.679-1.6442 0.728-3.1609 1.714-4.4922 2.923-1.139 1.009-2.0298 2.267-2.6029 3.677-0.47 1.195-0.5638 2.504-0.2687 3.754 0.3396 1.286 1.0352 2.45 2.0068 3.358 1.2271 1.142 2.6762 2.02 4.257 2.578l21.831 8.212c1.9566 0.717 4.0074 1.144 6.0875 1.268 2.1332 0.132 4.2746-6e-3 6.3728-0.412 2.038-0.372 4.016-1.022 5.878-1.931 1.694-0.809 3.225-1.922 4.517-3.283 1.085-1.12 1.861-2.503 2.251-4.014 0.309-1.31 0.212-2.684-0.278-3.938-0.546-1.309-1.409-2.463-2.51-3.358z" fill="#fff"/>
<path d="m136.86 111.62c1.437 0.437 2.791 1.113 4.005 1.998 0.984 0.719 1.788 1.656 2.351 2.738 0.483 0.974 0.653 2.074 0.487 3.148-0.213 1.194-0.764 2.301-1.587 3.191l-31.462 36.005c-1.133 1.261-2.491 2.301-4.005 3.064-1.632 0.835-3.373 1.434-5.173 1.781-1.8599 0.363-3.7604 0.476-5.6506 0.335-1.8551-0.131-3.6789-0.548-5.4074-1.234l-86.225-35.014c-1.1656-0.431-2.2067-1.144-3.0312-2.074-0.67751-0.77-1.087-1.739-1.1671-2.762-0.050179-1.061 0.20012-2.115 0.72211-3.04 0.65167-1.158 1.5247-2.176 2.5694-2.997l34.812-28.549c1.0756-0.8554 2.2654-1.5563 3.5349-2.0824 1.3516-0.5615 2.7589-0.9781 4.1983-1.2427 1.4625-0.2627 2.9483-0.3725 4.4335-0.3275 1.4069 0.0455 2.8017 0.2771 4.1479 0.6886l82.447 26.374zm-49.078 26.81c1.9566 0.717 4.0074 1.144 6.0875 1.268 2.1332 0.133 4.2745-6e-3 6.373-0.411 2.038-0.372 4.016-1.022 5.878-1.931 1.693-0.81 3.225-1.922 4.517-3.284 1.085-1.12 1.861-2.503 2.25-4.013 0.31-1.31 0.213-2.684-0.277-3.938-0.538-1.338-1.404-2.519-2.519-3.434-1.369-1.116-2.931-1.97-4.61-2.519l-21.52-7.356c-1.8092-0.606-3.6943-0.956-5.6005-1.041-1.9683-0.099-3.9413 0.036-5.8776 0.403-1.8932 0.33-3.7378 0.894-5.4914 1.679-1.6442 0.728-3.1609 1.714-4.4922 2.923-1.139 1.009-2.0298 2.267-2.603 3.677-0.4699 1.195-0.5637 2.504-0.2686 3.753 0.3396 1.287 1.0352 2.451 2.0068 3.359 1.2271 1.142 2.6762 2.02 4.257 2.578l21.831 8.212" fill="url(#g)"/>
<path d="m143.79 118.65c3e-3 0.7-0.131 1.393-0.395 2.041-0.307 0.73-0.733 1.405-1.259 1.998l-31.479 36.005c-1.133 1.261-2.491 2.301-4.005 3.064-1.632 0.835-3.373 1.434-5.173 1.781-1.8599 0.363-3.7604 0.476-5.6506 0.335-1.8577-0.132-3.6841-0.548-5.4158-1.234l-86.216-35.014c-0.53395-0.209-1.0458-0.47-1.5282-0.781-0.42871-0.271-0.82581-0.589-1.1839-0.948-0.32538-0.321-0.60764-0.682-0.83966-1.075-0.21771-0.37-0.38169-0.768-0.487-1.184l4.3578 16.726c0.11867 0.417 0.29383 0.815 0.52059 1.184 0.23341 0.4 0.51544 0.769 0.83966 1.1 0.35308 0.365 0.74437 0.692 1.1671 0.974 0.47218 0.324 0.97237 0.605 1.4946 0.84l83.823 35.92c1.6632 0.706 3.4299 1.137 5.2311 1.276 1.8272 0.157 3.6673 0.055 5.4663-0.302 1.743-0.337 3.427-0.931 4.996-1.763 1.47-0.77 2.781-1.813 3.862-3.073l30.43-36.299c0.264-0.313 0.503-0.647 0.713-0.999 0.197-0.327 0.365-0.669 0.504-1.024 0.129-0.335 0.227-0.681 0.294-1.033 0.061-0.341 0.089-0.687 0.084-1.033l-0.151-17.482z" fill="url(#f)"/>
<path d="m194.24 131.83 0.772 6.07c-0.155-0.058-0.315-0.103-0.479-0.134-0.169-0.032-0.34-0.054-0.512-0.067h-0.546c-0.184 0-0.369 0.042-0.545 0.075-0.179 0.033-0.355 0.075-0.529 0.126l-0.487 0.193c-0.148 0.073-0.291 0.154-0.429 0.244-0.128 0.084-0.249 0.18-0.361 0.285l-0.839-6.062c0.111-0.106 0.232-0.202 0.361-0.285 0.14-0.091 0.285-0.173 0.436-0.244 0.161-0.074 0.327-0.139 0.496-0.193 0.174-0.055 0.35-0.099 0.529-0.134 0.185 0 0.369-0.051 0.554-0.068h0.546c0.175 0.01 0.349 0.032 0.52 0.068 0.176 0.021 0.348 0.063 0.513 0.126z" fill="#D9CDFE"/>
<path d="m205.73 135.83 0.689 6.113-11.411-4.09-0.772-6.07 11.494 4.047z" fill="#D9CDFE"/>
<path d="m207.61 143c-0.039-0.115-0.093-0.225-0.159-0.327-0.073-0.107-0.161-0.203-0.261-0.285-0.106-0.096-0.221-0.18-0.344-0.252-0.136-0.078-0.279-0.143-0.428-0.193l-0.689-6.113c0.151 0.052 0.297 0.117 0.437 0.193 0.121 0.072 0.236 0.154 0.344 0.243 0.101 0.088 0.191 0.186 0.269 0.294 0.065 0.1 0.118 0.207 0.16 0.319 0.218 2.038 0.442 4.078 0.671 6.121z" fill="#D9CDFE"/>
<path d="m190.31 132.52 0.814 6.062-8.102 7.776-0.907-6.088 8.195-7.75z" fill="#D9CDFE"/>
<path d="m207.66 143.21v-0.1-0.059-0.051c-0.224-2.043-0.448-4.083-0.671-6.121v0.059 0.051 0.05 0.059l0.671 6.112z" fill="#D9CDFE"/>
<path d="m200.14 138.16 0.739 6.121-6.801-2.477-0.789-6.088 6.851 2.444z" fill="#fff"/>
<path d="m193.29 135.71 0.789 6.088-4.794 4.66-0.849-6.104 4.854-4.644z" fill="#fff"/>
<path d="m206.98 137.1 0.671 6.112c0.017 0.1 0.017 0.203 0 0.303-0.012 0.101-0.037 0.199-0.075 0.294-0.045 0.102-0.098 0.2-0.16 0.293-0.071 0.099-0.149 0.192-0.235 0.278l-0.68-6.122c0.086-0.086 0.164-0.178 0.235-0.277 0.063-0.092 0.116-0.191 0.16-0.294 0.039-0.094 0.067-0.193 0.084-0.293 0.012-0.098 0.012-0.197 0-0.294z" fill="#fff"/>
<path d="m182.48 147.64-0.907-6.096c-0.016-0.108-0.016-0.218 0-0.327 0.019-0.112 0.05-0.222 0.093-0.327 0.05-0.113 0.112-0.22 0.185-0.32 0.075-0.11 0.162-0.211 0.26-0.302l0.932 6.088c-0.094 0.094-0.181 0.195-0.26 0.302-0.072 0.102-0.131 0.212-0.177 0.327-0.042 0.106-0.073 0.216-0.092 0.328-0.028 0.107-0.04 0.217-0.034 0.327z" fill="#D9CDFE"/>
<path d="m182.48 147.64-0.907-6.096v0.101c0.028 0.12 0.077 0.233 0.143 0.336 0.066 0.11 0.148 0.209 0.244 0.294 0.101 0.097 0.214 0.182 0.336 0.252 0.134 0.079 0.274 0.146 0.419 0.201l0.899 6.105c-0.145-0.056-0.286-0.123-0.42-0.202-0.12-0.075-0.233-0.162-0.336-0.26-0.09-0.088-0.169-0.187-0.235-0.294-0.066-0.103-0.115-0.217-0.143-0.336v-0.101z" fill="#fff"/>
<path d="m195.32 142.87 0.789 6.13-6.826-2.536-0.849-6.104 6.886 2.51z" fill="#D9CDFE"/>
<path d="m200.14 138.16 0.739 6.121-4.769 4.719-0.789-6.13 4.819-4.71z" fill="#D9CDFE"/>
<path d="m188.44 140.36 4.854-4.644 6.851 2.444-4.819 4.71-6.886-2.51z" fill="url(#e)"/>
<path d="m206.5 138.26 0.68 6.122-7.994 8.01-0.772-6.146 8.086-7.986z" fill="#fff"/>
<path d="m194.35 147.01 0.806 6.146-11.512-4.324-0.898-6.105 11.604 4.283z" fill="#fff"/>
<path d="m198.41 146.24 0.772 6.146c-0.116 0.112-0.239 0.216-0.369 0.311-0.142 0.095-0.291 0.179-0.445 0.251-0.162 0.084-0.331 0.154-0.504 0.21-0.179 0.058-0.361 0.103-0.546 0.135-0.188 0.041-0.379 0.066-0.571 0.075h-0.562c-0.185 0-0.361 0-0.538-0.075-0.168-0.035-0.334-0.083-0.495-0.143l-0.84-6.146c0.164 0.061 0.332 0.109 0.504 0.142 0.18 0.036 0.362 0.059 0.546 0.068 0.187 0.012 0.375 0.012 0.562 0 0.193 0 0.387-0.042 0.571-0.076 0.188-0.034 0.374-0.081 0.554-0.143 0.174-0.058 0.345-0.125 0.513-0.201 0.155-0.075 0.303-0.162 0.445-0.261 0.143-0.085 0.278-0.183 0.403-0.293z" fill="#fff"/>
<path d="m212.66 137.39 0.629 6.129c0.059 0.613 0.042 1.23-0.05 1.839-0.096 0.642-0.268 1.271-0.512 1.872-0.265 0.659-0.6 1.286-0.999 1.873-0.444 0.653-0.947 1.263-1.503 1.822-1.53 1.522-3.311 2.769-5.265 3.686-2.116 1.011-4.354 1.742-6.658 2.175-2.36 0.447-4.766 0.6-7.163 0.453-2.297-0.13-4.562-0.605-6.717-1.411-1.033-0.387-2.023-0.88-2.956-1.469-0.81-0.515-1.554-1.127-2.216-1.822-0.596-0.614-1.097-1.313-1.487-2.074-0.364-0.709-0.614-1.471-0.738-2.259l-0.958-6.087c0.124 0.782 0.373 1.539 0.739 2.242 0.393 0.759 0.897 1.455 1.495 2.065 0.668 0.694 1.421 1.301 2.242 1.806 0.937 0.589 1.933 1.079 2.972 1.461 2.182 0.801 4.472 1.271 6.793 1.393 2.417 0.142 4.843-0.016 7.221-0.47 2.323-0.434 4.58-1.165 6.717-2.175 1.969-0.913 3.767-2.157 5.315-3.677 0.564-0.558 1.073-1.168 1.52-1.822 0.403-0.591 0.743-1.221 1.016-1.881 0.242-0.6 0.417-1.225 0.521-1.864 0.091-0.598 0.105-1.204 0.042-1.805z" fill="#fff"/>
<path d="m204.65 129.25c1.842 0.603 3.552 1.552 5.038 2.796 1.213 1.012 2.128 2.336 2.645 3.829 0.476 1.428 0.491 2.971 0.042 4.408-0.551 1.705-1.517 3.246-2.813 4.484-1.548 1.52-3.346 2.764-5.315 3.677-2.137 1.01-4.394 1.741-6.717 2.175-2.378 0.454-4.804 0.612-7.221 0.47-2.321-0.122-4.611-0.592-6.793-1.393-1.853-0.658-3.55-1.69-4.987-3.032-1.15-1.081-1.968-2.467-2.36-3.996-0.338-1.469-0.224-3.006 0.328-4.409 0.67-1.656 1.716-3.133 3.056-4.315 1.56-1.421 3.338-2.583 5.265-3.443 2.054-0.927 4.214-1.6 6.431-2.007 2.261-0.42 4.563-0.578 6.86-0.47 2.227 0.104 4.428 0.516 6.541 1.226zm-6.238 16.995 8.086-7.986c0.099-0.1 0.189-0.21 0.268-0.327 0.07-0.111 0.126-0.229 0.168-0.353 0.073-0.226 0.073-0.47 0-0.697-0.041-0.112-0.095-0.219-0.159-0.319-0.078-0.108-0.168-0.206-0.269-0.294-0.108-0.089-0.224-0.171-0.344-0.243-0.14-0.076-0.286-0.141-0.437-0.193l-11.486-4.005c-0.157-0.061-0.321-0.103-0.487-0.126-0.172-0.036-0.346-0.058-0.521-0.068h-0.546c-0.185 0-0.369 0-0.554 0.068-0.179 0.035-0.355 0.079-0.529 0.134-0.169 0.054-0.334 0.119-0.495 0.193-0.151 0.071-0.297 0.153-0.437 0.244-0.129 0.083-0.25 0.179-0.361 0.285l-8.195 7.75c-0.106 0.097-0.199 0.207-0.277 0.328-0.079 0.104-0.142 0.22-0.185 0.344-0.048 0.115-0.076 0.237-0.084 0.361-0.021 0.114-0.021 0.23 0 0.344 0.028 0.12 0.076 0.233 0.143 0.336 0.066 0.11 0.148 0.209 0.243 0.294 0.102 0.097 0.215 0.182 0.336 0.252 0.134 0.079 0.275 0.146 0.42 0.201l11.604 4.283c0.164 0.061 0.332 0.109 0.504 0.142 0.18 0.036 0.362 0.059 0.546 0.068 0.187 0.012 0.375 0.012 0.562 0 0.193 0 0.387-0.042 0.571-0.076 0.188-0.034 0.374-0.081 0.554-0.143 0.174-0.058 0.345-0.125 0.513-0.201 0.155-0.075 0.303-0.162 0.445-0.261 0.132-0.089 0.255-0.19 0.369-0.302" fill="url(#d)"/>
<path d="m206.94 136.86c0.072 0.226 0.072 0.47 0 0.696-0.042 0.124-0.099 0.243-0.168 0.353-0.08 0.117-0.17 0.227-0.269 0.328l-8.086 7.985c-0.114 0.112-0.237 0.213-0.369 0.302-0.142 0.098-0.29 0.185-0.445 0.26-0.168 0.076-0.339 0.143-0.513 0.202-0.181 0.061-0.366 0.109-0.554 0.143-0.185 0-0.378 0.058-0.571 0.075-0.187 0.013-0.375 0.013-0.562 0-0.184-9e-3 -0.366-0.031-0.546-0.067-0.172-0.034-0.34-0.081-0.504-0.143l-11.612-4.257c-0.146-0.055-0.286-0.123-0.42-0.201-0.122-0.071-0.235-0.155-0.336-0.252-0.095-0.086-0.177-0.185-0.244-0.294-0.066-0.103-0.114-0.217-0.142-0.336-0.022-0.114-0.022-0.23 0-0.344 8e-3 -0.124 0.036-0.246 0.084-0.361 0.043-0.124 0.105-0.24 0.184-0.345 0.078-0.12 0.171-0.23 0.277-0.327l8.196-7.75c0.111-0.106 0.232-0.202 0.361-0.286 0.139-0.091 0.285-0.172 0.436-0.243 0.161-0.074 0.327-0.139 0.496-0.193 0.173-0.055 0.35-0.1 0.529-0.135 0.184 0 0.369-0.05 0.554-0.067h0.546c0.175 0.01 0.349 0.032 0.52 0.067 0.167 0.023 0.33 0.066 0.487 0.126l11.445 4.031c0.15 0.052 0.296 0.117 0.436 0.193 0.121 0.072 0.236 0.154 0.345 0.243 0.1 0.088 0.19 0.186 0.268 0.294 0.07 0.094 0.129 0.196 0.177 0.303zm-11.621 5.986 4.819-4.702-6.851-2.452-4.853 4.644 6.885 2.519" fill="#fff"/>
<path d="m160.91 149c-0.41-0.146-0.841-0.228-1.276-0.244-0.444-0.026-0.889 2e-3 -1.327 0.084-0.428 0.082-0.845 0.214-1.242 0.395-0.366 0.17-0.704 0.397-0.999 0.671l-0.983-7.867c0.298-0.277 0.638-0.504 1.008-0.672 0.4-0.18 0.82-0.313 1.251-0.394 0.443-0.081 0.893-0.112 1.343-0.093 0.437 0.024 0.869 0.106 1.285 0.244 0.311 2.628 0.621 5.248 0.94 7.876z" fill="#D9CDFE"/>
<path d="m162.41 150.53c-0.02-0.16-0.065-0.316-0.134-0.462-0.082-0.153-0.184-0.294-0.303-0.42-0.136-0.137-0.288-0.258-0.453-0.361-0.192-0.113-0.395-0.209-0.605-0.285-0.319-2.628-0.629-5.248-0.94-7.876 0.211 0.074 0.413 0.17 0.605 0.285 0.168 0.1 0.323 0.222 0.461 0.361 0.121 0.125 0.223 0.266 0.303 0.42 0.072 0.141 0.118 0.295 0.134 0.453 0.285 2.368 0.655 5.525 0.932 7.885z" fill="#D9CDFE"/>
<path d="m142.17 152.52c-0.12 0.113-0.23 0.237-0.327 0.37-0.084 0.12-0.155 0.25-0.21 0.386-0.056 0.125-0.093 0.258-0.109 0.395-0.017 0.125-0.017 0.252 0 0.377l-1.117-7.859c-0.017-0.128-0.017-0.258 0-0.386 0.019-0.132 0.053-0.262 0.101-0.386 0.06-0.133 0.133-0.26 0.218-0.378 0.099-0.134 0.209-0.261 0.327-0.378 0.37 2.62 0.748 5.239 1.117 7.859-0.369-2.62-0.747-5.239-1.117-7.859 0.303-0.278 0.649-0.505 1.025-0.672 0.401-0.185 0.824-0.318 1.259-0.394 0.443-0.085 0.894-0.116 1.344-0.093 0.432 0.02 0.859 0.102 1.268 0.244l1.066 7.859c-0.404-0.147-0.829-0.229-1.259-0.243-0.444-0.027-0.89 1e-3 -1.327 0.083-0.431 0.082-0.851 0.215-1.251 0.395-0.37 0.171-0.711 0.401-1.008 0.68z" fill="#D9CDFE"/>
<path d="m161.48 142.64 0.932 7.885c0.021 0.119 0.021 0.241 0 0.361-0.018 0.127-0.052 0.251-0.101 0.369-0.051 0.127-0.116 0.248-0.193 0.361-0.089 0.128-0.19 0.246-0.302 0.353l-0.941-7.884c0.111-0.109 0.212-0.227 0.303-0.353 0.08-0.113 0.147-0.234 0.201-0.361 0.052-0.118 0.089-0.242 0.109-0.37 0.014-0.12 0.012-0.241-8e-3 -0.361z" fill="#fff"/>
<path d="m151.31 145.67 1.024 7.876-5.315-1.94-1.066-7.859 5.357 1.923z" fill="#D9CDFE"/>
<path d="m155.08 142.04 0.983 7.867-3.737 3.645-1.024-7.876 3.778-3.636z" fill="#D9CDFE"/>
<path d="m141.52 154.05c-0.37-2.619-0.748-5.239-1.117-7.859 0.02 0.152 0.066 0.3 0.134 0.437 0.08 0.144 0.178 0.277 0.294 0.394 0.129 0.135 0.276 0.251 0.437 0.345 0.179 0.114 0.37 0.207 0.571 0.277l1.117 7.876c-0.199-0.076-0.39-0.168-0.571-0.277-0.16-0.1-0.306-0.218-0.437-0.353-0.115-0.119-0.212-0.255-0.286-0.403-0.072-0.136-0.12-0.284-0.142-0.437z" fill="#fff"/>
<path d="m159.97 141.12c0.356 0.118 0.684 0.306 0.966 0.554 0.227 0.195 0.398 0.447 0.495 0.73 0.084 0.274 0.084 0.566 0 0.84-0.113 0.321-0.304 0.609-0.554 0.84l-3.779 3.694-5.793-2.074 3.778-3.636c0.298-0.276 0.638-0.503 1.008-0.671 0.4-0.181 0.82-0.313 1.251-0.395 0.443-0.081 0.893-0.112 1.343-0.092 0.436 0.013 0.868 0.084 1.285 0.21z" fill="#fff"/>
<path d="m160.86 144.09 0.94 7.884-3.728 3.678-0.974-7.901 3.762-3.661z" fill="#fff"/>
<path d="m157.1 147.75 0.974 7.901-5.743-2.099-1.024-7.876 5.793 2.074z" fill="#fff"/>
<path d="m162.57 149.7 0.932 7.918-5.425-1.973-0.974-7.901 5.467 1.956z" fill="#D9CDFE"/>
<path d="m147.22 149.59 1.066 7.893-3.829 3.736-1.108-7.909 3.871-3.72z" fill="#D9CDFE"/>
<path d="m143.81 162.79c-0.37-2.636-0.748-5.273-1.117-7.909-0.017-0.129-0.017-0.258 0-0.387 0.016-0.138 0.053-0.274 0.109-0.403 0.055-0.14 0.128-0.273 0.218-0.394 0.097-0.139 0.207-0.268 0.328-0.386l1.117 7.909c-0.244 0.211-0.431 0.48-0.546 0.781-0.055 0.126-0.092 0.259-0.109 0.395-0.017 0.131-0.017 0.263 0 0.394z" fill="#D9CDFE"/>
<path d="m143.81 162.79c-0.37-2.636-0.748-5.273-1.117-7.909 0.022 0.158 0.07 0.311 0.143 0.453 0.079 0.152 0.178 0.293 0.293 0.42 0.136 0.133 0.285 0.251 0.445 0.353 0.188 0.116 0.388 0.212 0.597 0.285 0.418 0.153 0.857 0.24 1.301 0.26 0.915 0.058 1.829-0.112 2.662-0.495 0.38-0.182 0.731-0.419 1.041-0.705l1.058 7.926c-0.304 0.286-0.649 0.524-1.024 0.705-0.407 0.19-0.836 0.328-1.277 0.412-0.451 0.082-0.91 0.11-1.368 0.084-0.439-0.02-0.873-0.108-1.285-0.261-0.206-0.077-0.402-0.176-0.588-0.293-0.162-0.102-0.312-0.224-0.445-0.361-0.115-0.124-0.214-0.263-0.294-0.412-0.071-0.145-0.119-0.301-0.142-0.462z" fill="#fff"/>
<path d="m143.35 153.31 3.871-3.72 5.81 2.107-3.854 3.754c-0.31 0.286-0.661 0.523-1.041 0.705-0.833 0.383-1.747 0.553-2.662 0.495-0.444-0.02-0.883-0.107-1.301-0.26-0.361-0.122-0.692-0.316-0.974-0.571-0.224-0.213-0.387-0.483-0.471-0.781-0.068-0.278-0.054-0.57 0.042-0.839 0.119-0.339 0.318-0.644 0.58-0.89z" fill="#fff"/>
<path d="m148.13 156.18c0.38-0.182 0.731-0.419 1.041-0.706l0.327 2.519 4.543 1.68-1.016-7.918-5.81-2.108 0.89 6.575 0.025-0.042z" fill="#fff"/>
<path d="m164.11 151.28 0.915 7.934c-0.019-0.165-0.065-0.327-0.135-0.478-0.08-0.161-0.185-0.308-0.31-0.437-0.135-0.148-0.291-0.275-0.462-0.378-0.196-0.122-0.404-0.223-0.621-0.302l-0.932-7.918c0.216 0.076 0.425 0.174 0.621 0.294 0.172 0.106 0.33 0.233 0.47 0.378 0.126 0.125 0.231 0.27 0.311 0.428 0.074 0.15 0.122 0.312 0.143 0.479z" fill="#D9CDFE"/>
<path d="m162.57 149.7c0.363 0.121 0.7 0.312 0.99 0.563 0.231 0.207 0.404 0.47 0.504 0.764 0.083 0.273 0.083 0.566 0 0.839-0.113 0.321-0.303 0.61-0.554 0.84-0.297 0.287-0.641 0.523-1.016 0.697-0.832 0.385-1.747 0.555-2.662 0.495-0.444-0.021-0.883-0.108-1.301-0.26l-5.483-1.99-5.811-2.108-5.373-1.948c-0.348-0.119-0.668-0.308-0.941-0.554-0.223-0.2-0.386-0.459-0.47-0.747-0.067-0.279-0.049-0.571 0.05-0.84 0.124-0.32 0.319-0.607 0.571-0.839 0.303-0.278 0.649-0.505 1.025-0.672 0.401-0.185 0.824-0.318 1.259-0.395 0.443-0.085 0.894-0.116 1.344-0.092 0.432 0.019 0.859 0.101 1.267 0.243l5.358 1.923 5.793 2.074 5.45 2.007z" fill="#fff"/>
<path d="m164.11 151.28 0.915 7.934c0.017 0.123 0.017 0.247 0 0.37-0.018 0.129-0.052 0.256-0.101 0.378-0.054 0.129-0.122 0.253-0.202 0.369-0.088 0.13-0.189 0.251-0.302 0.361-0.295 0.29-0.639 0.525-1.016 0.697-0.399 0.195-0.822 0.333-1.259 0.411-0.451 0.086-0.911 0.117-1.369 0.093-0.442-0.028-0.877-0.118-1.293-0.269l-0.974-7.968c0.418 0.151 0.857 0.239 1.301 0.26 0.915 0.06 1.83-0.111 2.662-0.495 0.375-0.174 0.719-0.41 1.016-0.697 0.113-0.112 0.217-0.233 0.311-0.361 0.078-0.117 0.146-0.241 0.201-0.37 0.05-0.121 0.083-0.248 0.101-0.378 0.013-0.111 0.016-0.223 9e-3 -0.335z" fill="#fff"/>
<path d="m153.03 151.71 1.016 7.909-3.812 3.762-1.058-7.926 3.854-3.745z" fill="#fff"/>
<path d="m175.92 146.26 0.84 7.927c0.077 0.791 0.057 1.589-0.059 2.376-0.123 0.83-0.345 1.642-0.663 2.418-0.347 0.849-0.78 1.659-1.293 2.418-0.574 0.844-1.223 1.634-1.94 2.36-1.979 1.967-4.282 3.578-6.81 4.761-2.746 1.305-5.655 2.237-8.648 2.771-3.042 0.581-6.145 0.782-9.236 0.596-2.982-0.152-5.923-0.755-8.724-1.789-1.333-0.504-2.61-1.143-3.812-1.906-1.052-0.664-2.019-1.453-2.881-2.351-0.764-0.8-1.411-1.705-1.922-2.687-0.47-0.915-0.793-1.898-0.958-2.913l-1.234-7.876c0.163 1.013 0.486 1.993 0.957 2.905 0.517 0.975 1.167 1.874 1.932 2.67 0.87 0.89 1.842 1.673 2.896 2.334 1.217 0.755 2.505 1.387 3.846 1.89 2.824 1.027 5.783 1.632 8.783 1.796 3.128 0.185 6.267-0.018 9.345-0.604 3.008-0.563 5.931-1.508 8.699-2.813 2.546-1.182 4.871-2.79 6.877-4.752 0.726-0.72 1.381-1.507 1.956-2.352 0.522-0.754 0.961-1.562 1.31-2.409 0.321-0.774 0.546-1.583 0.672-2.41 0.123-0.781 0.145-1.573 0.067-2.36z" fill="#fff"/>
<path d="m165.56 135.73c2.382 0.77 4.593 1.997 6.507 3.611 1.569 1.307 2.753 3.017 3.426 4.945 0.612 1.848 0.632 3.841 0.059 5.701-0.71 2.207-1.96 4.201-3.636 5.803-2.006 1.962-4.331 3.57-6.877 4.752-2.768 1.305-5.691 2.25-8.699 2.813-3.078 0.586-6.217 0.789-9.345 0.604-3-0.164-5.959-0.769-8.783-1.796-2.396-0.854-4.591-2.192-6.449-3.93-1.485-1.396-2.539-3.188-3.039-5.164-0.446-1.896-0.299-3.883 0.42-5.693 0.863-2.14 2.211-4.052 3.938-5.584 2.021-1.831 4.319-3.33 6.809-4.441 2.658-1.203 5.452-2.077 8.321-2.603 2.923-0.545 5.898-0.748 8.867-0.605 2.887 0.131 5.742 0.665 8.481 1.587zm-7.045 17.927c0.418 0.151 0.857 0.239 1.301 0.26 0.915 0.06 1.83-0.111 2.662-0.495 0.375-0.174 0.719-0.41 1.016-0.697 0.251-0.23 0.441-0.519 0.554-0.84 0.083-0.274 0.083-0.566 0-0.84-0.099-0.293-0.273-0.556-0.503-0.764-0.291-0.25-0.628-0.441-0.991-0.562l-5.45-1.94 3.762-3.661c0.251-0.23 0.441-0.518 0.554-0.839 0.084-0.274 0.084-0.566 0-0.84-0.097-0.283-0.268-0.536-0.495-0.731-0.282-0.247-0.61-0.435-0.966-0.554-0.415-0.137-0.847-0.219-1.284-0.243-0.45-0.02-0.901 0.011-1.344 0.092-0.431 0.082-0.851 0.214-1.251 0.395-0.37 0.168-0.71 0.395-1.008 0.671l-3.778 3.636-5.357-1.923c-0.409-0.142-0.836-0.224-1.268-0.243-0.45-0.024-0.901 7e-3 -1.343 0.092-0.435 0.077-0.859 0.21-1.26 0.395-0.375 0.167-0.721 0.394-1.024 0.672-0.253 0.232-0.448 0.519-0.571 0.839-0.1 0.269-0.118 0.561-0.051 0.84 0.084 0.288 0.247 0.547 0.471 0.747 0.273 0.246 0.592 0.435 0.94 0.554l5.374 1.948-3.871 3.72c-0.255 0.232-0.453 0.519-0.579 0.84-0.096 0.27-0.111 0.561-0.042 0.839 0.084 0.298 0.246 0.568 0.47 0.781 0.282 0.255 0.614 0.449 0.974 0.571 0.418 0.153 0.857 0.241 1.301 0.261 0.915 0.057 1.829-0.113 2.662-0.496 0.381-0.181 0.732-0.419 1.041-0.705l3.854-3.753 5.483 1.99" fill="url(#c)"/>
<path d="m142.79 154.1s0-0.059 0.042-0.084c0.01-0.03 0.024-0.058 0.042-0.084l0.05-0.092 0.059-0.093 0.134-0.168 0.076-0.084 0.084-0.092 3.87-3.72-5.373-1.948 0.923 6.533 0.093-0.168z" fill="url(#b)"/>
<path d="m158.51 153.69 0.974 7.935-5.441-2.007-1.016-7.909 5.483 1.981z" fill="url(#a)"/>
</g>
<defs>
<linearGradient id="h" x1="173.84" x2="173.84" y1="-.9824" y2="157.07" gradientUnits="userSpaceOnUse">
<stop stop-color="#4C58CB" offset="0"/>
<stop stop-color="#68319E" offset="1"/>
</linearGradient>
<linearGradient id="g" x1="37.457" x2="96.737" y1="71.85" y2="155.54" gradientUnits="userSpaceOnUse">
<stop stop-color="#D34255" offset="0"/>
<stop stop-color="#97358A" offset="1"/>
</linearGradient>
<linearGradient id="f" x1="5919.8" x2="8594.8" y1="5670.3" y2="14280" gradientUnits="userSpaceOnUse">
<stop stop-color="#D34255" offset="0"/>
<stop stop-color="#97358A" offset="1"/>
</linearGradient>
<linearGradient id="e" x1="2527.9" x2="2733.3" y1="1029.4" y2="1465.8" gradientUnits="userSpaceOnUse">
<stop stop-color="#4C58CB" offset="0"/>
<stop stop-color="#68319E" offset="1"/>
</linearGradient>
<linearGradient id="d" x1="7510.2" x2="8188.1" y1="3022.4" y2="4418.4" gradientUnits="userSpaceOnUse">
<stop stop-color="#4C58CB" offset="0"/>
<stop stop-color="#68319E" offset="1"/>
</linearGradient>
<linearGradient id="c" x1="7859.4" x2="8735.6" y1="4727.8" y2="6532.8" gradientUnits="userSpaceOnUse">
<stop stop-color="#4C58CB" offset="0"/>
<stop stop-color="#68319E" offset="1"/>
</linearGradient>
<linearGradient id="b" x1="978.75" x2="1221.6" y1="1185.8" y2="1445.2" gradientUnits="userSpaceOnUse">
<stop stop-color="#4C58CB" offset="0"/>
<stop stop-color="#68319E" offset="1"/>
</linearGradient>
<linearGradient id="a" x1="1195.4" x2="1559.7" y1="1684.1" y2="1992.1" gradientUnits="userSpaceOnUse">
<stop stop-color="#4C58CB" offset="0"/>
<stop stop-color="#68319E" offset="1"/>
</linearGradient>
<clipPath id="i">
<rect width="240" height="181.74" fill="#fff"/>
</clipPath>
</defs>
</svg>
